<svg width="83" height="83" viewBox="0 0 83 83" fill="none" xmlns="http://www.w3.org/2000/svg">
<path d="M41.9824 52.2451C48.0113 52.2451 52.8986 47.3577 52.8986 41.3288C52.8986 35.3 48.0113 30.4126 41.9824 30.4126C35.9535 30.4126 31.0662 35.3 31.0662 41.3288C31.0662 47.3577 35.9535 52.2451 41.9824 52.2451Z" stroke="white" stroke-width="2" stroke-miterlimit="10"/>
<path d="M42.2759 22.6173C42.2759 22.7206 42.2392 22.7907 42.2097 22.8244C42.2076 22.8268 42.2056 22.829 42.2038 22.8309C42.202 22.829 42.2 22.8268 42.1979 22.8244C42.1684 22.7907 42.1317 22.7206 42.1317 22.6173V16.8263C42.1317 16.7202 42.1691 16.6491 42.1985 16.6155C42.2004 16.6133 42.2021 16.6114 42.2038 16.6097C42.2055 16.6114 42.2072 16.6133 42.2091 16.6155C42.2385 16.6491 42.2759 16.7202 42.2759 16.8263V22.6173ZM42.1865 22.8448C42.1865 22.8447 42.1874 22.8442 42.1891 22.8436C42.1874 22.8446 42.1866 22.8449 42.1865 22.8448ZM42.2185 22.8436C42.2202 22.8442 42.2211 22.8447 42.2211 22.8448C42.221 22.8449 42.2202 22.8447 42.2185 22.8436ZM42.2213 16.5953C42.2213 16.5954 42.2205 16.5959 42.2188 16.5965C42.2205 16.5955 42.2213 16.5952 42.2213 16.5953ZM42.1888 16.5965C42.1871 16.5959 42.1863 16.5954 42.1863 16.5953C42.1863 16.5952 42.1871 16.5955 42.1888 16.5965Z" fill="white" stroke="white" stroke-width="2"/>
<path d="M42.2759 66.5035C42.2759 66.6097 42.2385 66.6807 42.2091 66.7144C42.2072 66.7165 42.2055 66.7184 42.2038 66.7202C42.2021 66.7184 42.2004 66.7165 42.1985 66.7144C42.1691 66.6808 42.1317 66.6097 42.1317 66.5035V60.7125C42.1317 60.6093 42.1684 60.5391 42.1979 60.5054C42.2 60.503 42.202 60.5009 42.2038 60.499C42.2056 60.5009 42.2076 60.503 42.2097 60.5054C42.2392 60.5391 42.2759 60.6093 42.2759 60.7125V66.5035ZM42.1863 66.7346C42.1863 66.7345 42.1871 66.7339 42.1888 66.7333C42.1871 66.7344 42.1863 66.7347 42.1863 66.7346ZM42.2188 66.7333C42.2205 66.7339 42.2213 66.7345 42.2213 66.7346C42.2213 66.7347 42.2205 66.7344 42.2188 66.7333ZM42.2211 60.485C42.2211 60.4851 42.2202 60.4856 42.2185 60.4862C42.2202 60.4852 42.221 60.4849 42.2211 60.485ZM42.1891 60.4862C42.1874 60.4856 42.1865 60.4851 42.1865 60.485C42.1866 60.4849 42.1874 60.4852 42.1891 60.4862Z" fill="white" stroke="white" stroke-width="2"/>
<path d="M61.4754 41.069C61.3697 41.069 61.2994 41.0318 61.2664 41.0029C61.2639 41.0008 61.2618 40.9988 61.2599 40.997C61.2617 40.9952 61.2637 40.9934 61.266 40.9914C61.2998 40.9619 61.3706 40.9248 61.4754 40.9248H67.2698C67.3731 40.9248 67.4434 40.9615 67.4773 40.9911C67.4797 40.9932 67.4819 40.9952 67.4837 40.997C67.4818 40.9989 67.4795 41.001 67.4769 41.0032C67.4439 41.0322 67.374 41.069 67.2698 41.069H61.4754ZM61.2465 40.9803C61.2466 40.9803 61.2472 40.9811 61.2477 40.9829C61.2467 40.9812 61.2464 40.9803 61.2465 40.9803ZM61.247 41.0117C61.2464 41.0134 61.2459 41.0142 61.2458 41.0141C61.2457 41.0141 61.246 41.0133 61.247 41.0117ZM67.4976 41.014C67.4975 41.014 67.497 41.0132 67.4964 41.0116C67.4974 41.0132 67.4977 41.014 67.4976 41.014ZM67.4957 40.9831C67.4962 40.9813 67.4968 40.9804 67.4969 40.9804C67.497 40.9804 67.4968 40.9813 67.4957 40.9831Z" fill="white" stroke="white" stroke-width="2"/>
<path d="M17.5856 41.069C17.4814 41.069 17.4115 41.0322 17.3785 41.0032C17.3759 41.001 17.3736 40.9989 17.3716 40.997C17.3735 40.9952 17.3757 40.9932 17.3781 40.9911C17.4119 40.9615 17.4823 40.9248 17.5856 40.9248H23.38C23.4846 40.9248 23.5546 40.9618 23.5878 40.9908C23.5902 40.9929 23.5924 40.9949 23.5942 40.9967C23.5922 40.9987 23.5898 41.0009 23.5871 41.0032C23.5541 41.0322 23.4842 41.069 23.38 41.069H17.5856ZM17.3585 40.9804C17.3586 40.9804 17.3591 40.9813 17.3597 40.9831C17.3586 40.9813 17.3583 40.9804 17.3585 40.9804ZM17.359 41.0116C17.3584 41.0132 17.3579 41.014 17.3578 41.014C17.3576 41.014 17.3579 41.0132 17.359 41.0116ZM23.6077 41.0132C23.6076 41.0133 23.6071 41.0125 23.6065 41.0108C23.6075 41.0124 23.6078 41.0132 23.6077 41.0132ZM23.6059 40.9831C23.6065 40.9813 23.607 40.9804 23.6071 40.9804C23.6072 40.9804 23.607 40.9813 23.6059 40.9831Z" fill="white" stroke="white" stroke-width="2"/>
<path d="M55.5015 27.7997L55.4999 27.8013C55.428 27.8735 55.3529 27.8973 55.3077 27.9003C55.3054 27.9005 55.3033 27.9006 55.3013 27.9006C55.3014 27.8984 55.3015 27.8961 55.3016 27.8936C55.3048 27.8466 55.3293 27.7708 55.4007 27.6994L55.4008 27.6993L59.4941 23.6043C59.4942 23.6041 59.4944 23.604 59.4946 23.6038C59.5688 23.5301 59.645 23.5063 59.6897 23.5033C59.6925 23.5031 59.695 23.503 59.6974 23.5029C59.6974 23.5064 59.6973 23.5102 59.697 23.5146C59.694 23.5601 59.6704 23.6345 59.5989 23.7058L59.5979 23.7067L55.5015 27.7997ZM55.2763 27.8983C55.2764 27.8982 55.2773 27.8985 55.279 27.8993C55.2771 27.8988 55.2763 27.8984 55.2763 27.8983ZM55.3028 27.9236C55.3035 27.9252 55.3038 27.9261 55.3037 27.9262C55.3036 27.9263 55.3032 27.9254 55.3028 27.9236ZM59.6954 23.4829C59.6944 23.4812 59.6941 23.4802 59.6942 23.4801C59.6943 23.48 59.6948 23.4809 59.6954 23.4829ZM59.7205 23.5052C59.7205 23.5053 59.7195 23.5051 59.7178 23.5043C59.7198 23.5047 59.7206 23.5051 59.7205 23.5052Z" fill="white" stroke="white" stroke-width="2"/>
<path d="M24.3671 58.7329L28.4594 54.644C28.4597 54.6437 28.46 54.6435 28.4602 54.6432C28.535 54.5693 28.6124 54.545 28.6577 54.5419C28.66 54.5417 28.6621 54.5416 28.6641 54.5415C28.664 54.5438 28.6639 54.5462 28.6637 54.5489C28.6607 54.5944 28.6365 54.671 28.5635 54.7445C28.5633 54.7447 28.5631 54.7448 28.563 54.745L24.4709 58.8354C24.4707 58.8355 24.4705 58.8357 24.4704 58.8358C24.3975 58.9083 24.3214 58.9324 24.2753 58.9354C24.2718 58.9357 24.2686 58.9358 24.2658 58.9358C24.2659 58.934 24.266 58.932 24.2661 58.9299C24.2691 58.885 24.2931 58.8079 24.3671 58.7329ZM28.6864 54.5433C28.6863 54.5433 28.6854 54.5432 28.6839 54.5425C28.6857 54.5429 28.6864 54.5432 28.6864 54.5433ZM28.6629 54.5216C28.6622 54.5201 28.662 54.5192 28.6621 54.5191C28.6622 54.519 28.6625 54.5198 28.6629 54.5216ZM24.2431 58.9333C24.2431 58.9332 24.2441 58.9335 24.2458 58.9343C24.2438 58.9338 24.243 58.9334 24.2431 58.9333ZM24.2668 58.9565C24.2675 58.958 24.2677 58.9589 24.2676 58.959C24.2675 58.959 24.2672 58.9583 24.2668 58.9565Z" fill="white" stroke="white" stroke-width="2"/>
<path d="M55.4974 55.0822L55.4974 55.0822L55.5016 55.0865L59.5963 59.176C59.5965 59.1762 59.5967 59.1764 59.5969 59.1766C59.6712 59.2514 59.6947 59.3278 59.6977 59.3721C59.6979 59.3749 59.698 59.3776 59.698 59.38C59.6951 59.38 59.6919 59.3798 59.6882 59.3796C59.6447 59.3767 59.5693 59.3535 59.4953 59.2795L55.4006 55.1848C55.3283 55.1125 55.304 55.0365 55.3009 54.9907C55.3008 54.9886 55.3007 54.9867 55.3006 54.9848C55.3034 54.9849 55.3065 54.985 55.3098 54.9852C55.3538 54.988 55.4268 55.0108 55.4974 55.0822ZM59.6961 59.401C59.696 59.4009 59.6962 59.4 59.6969 59.3985C59.6965 59.4003 59.6962 59.401 59.6961 59.401ZM59.7155 59.3786C59.7171 59.3778 59.718 59.3776 59.7181 59.3777C59.7182 59.3778 59.7174 59.3782 59.7155 59.3786ZM55.3026 54.9605C55.3026 54.9605 55.3024 54.9614 55.3018 54.963C55.3021 54.9612 55.3025 54.9604 55.3026 54.9605ZM55.2799 54.9866C55.2783 54.9875 55.2773 54.9877 55.2772 54.9876C55.2772 54.9876 55.278 54.9871 55.2799 54.9866Z" fill="white" stroke="white" stroke-width="2"/>
<path d="M24.2444 23.9525C24.2443 23.9524 24.2451 23.952 24.247 23.9516C24.2454 23.9523 24.2444 23.9525 24.2444 23.9525ZM28.4616 28.2455L24.367 24.1544L24.2663 23.9502C24.269 23.9502 24.272 23.9503 24.2752 23.9505C24.3203 23.9535 24.3962 23.9774 24.4695 24.0506L28.5642 28.1453C28.6381 28.2192 28.662 28.2956 28.6649 28.3401C28.6651 28.3426 28.6652 28.3449 28.6653 28.347C28.662 28.3471 28.6582 28.3469 28.6539 28.3467C28.6105 28.3439 28.5367 28.3212 28.4644 28.2484L28.4616 28.2455ZM28.6635 28.3685C28.6634 28.3685 28.6636 28.3676 28.6642 28.3661C28.6639 28.3679 28.6636 28.3686 28.6635 28.3685ZM28.6831 28.3453C28.6847 28.3445 28.6857 28.3442 28.6857 28.3443C28.6858 28.3444 28.685 28.3448 28.6831 28.3453Z" fill="white" stroke="white" stroke-width="2"/>
</svg>
