<svg width="130" height="81" viewBox="0 0 130 81" fill="none" xmlns="http://www.w3.org/2000/svg">
<path d="M28.2806 79.7117C38.7197 79.7117 47.1823 71.2491 47.1823 60.81C47.1823 50.3708 38.7197 41.9082 28.2806 41.9082C17.8414 41.9082 9.37878 50.3708 9.37878 60.81C9.37878 71.2491 17.8414 79.7117 28.2806 79.7117Z" stroke="white" stroke-width="2" stroke-miterlimit="10" stroke-linecap="round" stroke-linejoin="round"/>
<path d="M110.098 79.7117C120.537 79.7117 129 71.2491 129 60.81C129 50.3708 120.537 41.9082 110.098 41.9082C99.659 41.9082 91.1964 50.3708 91.1964 60.81C91.1964 71.2491 99.659 79.7117 110.098 79.7117Z" stroke="white" stroke-width="2" stroke-miterlimit="10" stroke-linecap="round" stroke-linejoin="round"/>
<path d="M110.098 69.3607C114.821 69.3607 118.649 65.5324 118.649 60.81C118.649 56.0875 114.821 52.2592 110.098 52.2592C105.376 52.2592 101.547 56.0875 101.547 60.81C101.547 65.5324 105.376 69.3607 110.098 69.3607Z" stroke="white" stroke-width="2" stroke-miterlimit="10" stroke-linecap="round" stroke-linejoin="round"/>
<path d="M28.2805 69.3607C33.003 69.3607 36.8313 65.5324 36.8313 60.81C36.8313 56.0875 33.003 52.2592 28.2805 52.2592C23.5581 52.2592 19.7297 56.0875 19.7297 60.81C19.7297 65.5324 23.5581 69.3607 28.2805 69.3607Z" stroke="white" stroke-width="2" stroke-miterlimit="10" stroke-linecap="round" stroke-linejoin="round"/>
<path d="M1.77307 62.9701H68.7393C70.9445 62.9701 73.0597 62.07 74.5449 60.4499L84.0408 50.234C86.156 47.9837 84.8508 44.2934 81.8355 43.8433L78.0102 43.2583" stroke="white" stroke-width="2" stroke-miterlimit="10" stroke-linecap="round" stroke-linejoin="round"/>
<path d="M110.098 60.81L87.686 1.31445L74.0048 6.84997" stroke="white" stroke-width="2" stroke-miterlimit="10" stroke-linecap="round" stroke-linejoin="round"/>
<path d="M28.2805 62.9701L35.9312 34.7524" stroke="white" stroke-width="2" stroke-miterlimit="10" stroke-linecap="round" stroke-linejoin="round"/>
<path d="M53.393 32.5474H27.2906C24.4553 32.5474 22.1151 30.2072 22.1151 27.3719C22.1151 24.5366 24.4553 22.1964 27.2906 22.1964H53.393C56.2283 22.1964 58.5685 24.5366 58.5685 27.3719C58.5685 30.2522 56.2283 32.5474 53.393 32.5474Z" stroke="white" stroke-width="2" stroke-miterlimit="10" stroke-linecap="round" stroke-linejoin="round"/>
<path d="M53.3929 32.5474H85.2109C91.8265 32.5474 96.4169 25.8867 94.0317 19.7212L92.0966 14.6807C92.0966 14.6807 73.3748 10.0903 58.1634 25.3017" stroke="white" stroke-width="2" stroke-miterlimit="10" stroke-linecap="round" stroke-linejoin="round"/>
<path d="M58.1183 47.9387H50.2876L44.347 38.5328H58.1183V47.9387Z" stroke="white" stroke-width="2" stroke-miterlimit="10" stroke-linecap="round" stroke-linejoin="round"/>
<path d="M68.7393 62.025C72.3682 62.025 75.3099 59.0832 75.3099 55.4544C75.3099 51.8255 72.3682 48.8838 68.7393 48.8838C65.1105 48.8838 62.1687 51.8255 62.1687 55.4544C62.1687 59.0832 65.1105 62.025 68.7393 62.025Z" stroke="white" stroke-width="2" stroke-miterlimit="10" stroke-linecap="round" stroke-linejoin="round"/>
<path d="M109.243 26.7418C104.248 26.7418 100.197 23.8615 100.197 20.3062C100.197 16.7509 104.248 13.8706 109.243 13.8706V26.7418Z" stroke="white" stroke-width="2" stroke-miterlimit="10" stroke-linecap="round" stroke-linejoin="round"/>
<path d="M77.4701 38.5328H64.1039L67.2092 49.0638H74.0048L77.4701 38.5328Z" stroke="white" stroke-width="2" stroke-miterlimit="10" stroke-linecap="round" stroke-linejoin="round"/>
</svg>
