<svg width="38" height="87" viewBox="0 0 38 87" fill="none" xmlns="http://www.w3.org/2000/svg">
<path d="M33.3445 27.7429C33.1758 24.7897 30.982 22.3991 28.1414 21.8928V10.6991C28.1414 5.80535 24.1758 1.83972 19.282 1.83972C14.3883 1.83972 10.4227 5.80535 10.4227 10.6991V21.8928C7.58203 22.3991 5.38828 24.7897 5.21953 27.7429L1.95703 85.3991H36.5508L33.3445 27.7429Z" stroke="white" stroke-width="2" stroke-miterlimit="10" stroke-linecap="round" stroke-linejoin="round"/>
<path d="M19.282 21.0491C16.7508 21.0491 14.6976 18.996 14.6976 16.4647V11.8522C14.6976 9.32095 16.7508 7.26782 19.282 7.26782C21.8133 7.26782 23.8664 9.32095 23.8664 11.8522V16.4647C23.8664 18.996 21.8133 21.0491 19.282 21.0491Z" stroke="white" stroke-width="2" stroke-miterlimit="10" stroke-linecap="round" stroke-linejoin="round"/>
<path d="M34.1602 42.1991C29.8852 46.221 24.7664 48.5835 19.2821 48.5835C13.7977 48.5835 8.70706 46.2491 4.40393 42.1991" stroke="white" stroke-width="2" stroke-miterlimit="10" stroke-linecap="round" stroke-linejoin="round"/>
</svg>
