<svg width="289" height="380" viewBox="0 0 289 380" fill="none" xmlns="http://www.w3.org/2000/svg">
<g clip-path="url(#clip0)">
<rect width="289" height="380" fill="white"/>
<path fill-rule="evenodd" clip-rule="evenodd" d="M195.435 46.9284V172.921H126.676V46.9284H195.435Z" fill="white"/>
<path fill-rule="evenodd" clip-rule="evenodd" d="M200.451 46.9284H275.693V141.24H226.783V148.368H200.451V46.9284Z" fill="white"/>
<path fill-rule="evenodd" clip-rule="evenodd" d="M9.24805 46.9284H72.361H122.496L122.492 176.881H136.728V208.523H145.087L145.091 306.759H9.24805V46.9284Z" fill="white"/>
<path fill-rule="evenodd" clip-rule="evenodd" d="M149.271 360.788V176.881H199.616V153.12H275.694V360.788H149.271Z" fill="white"/>
<path fill-rule="evenodd" clip-rule="evenodd" d="M18.8613 360.222V318.77H89.8863V312.684H126.429V319.828H129.204V360.222H18.8613Z" fill="white"/>
<path fill-rule="evenodd" clip-rule="evenodd" d="M9.24805 306.759H145.079V360.222H9.24805V306.759Z" fill="white"/>
<path fill-rule="evenodd" clip-rule="evenodd" d="M69.0176 311.512H127.533V316.264H69.0176V311.512Z" fill="white"/>
<path fill-rule="evenodd" clip-rule="evenodd" d="M226.369 140.737H227.565V148.368H226.369V140.737Z" fill="white"/>
<path fill-rule="evenodd" clip-rule="evenodd" d="M239.343 341.973L238.934 342.314L238.428 342.658L237.513 343.181L236.823 343.514L235.728 343.629L235.164 343.613L234.625 343.526L233.454 343.256L232.823 343.086L231.055 342.437L229.325 341.692L227.645 340.852L226.056 339.95L224.522 338.963L223.014 337.87L221.572 336.698L220.205 335.447L219.778 334.979L219.03 334.084L218.721 333.657L218.47 333.178L218.119 332.192L218.144 331.455L218.261 330.453L218.378 329.871L218.533 329.376L218.997 328.168L219.239 327.649L219.67 326.818L220.217 325.887L220.631 325.206L221.396 324.057L221.789 323.542L222.37 322.818L223.026 322.014L223.465 321.539L224.284 320.659L224.698 320.271L225.576 319.46L226.077 319.056L226.892 318.418L228.058 317.618L229.283 317.143L230.554 316.992L231.185 317.06L232.677 317.285L233.379 317.44L234.303 317.666L235.791 318.125L237.454 318.802L238.859 319.511L239.557 319.927L240.246 320.355L241.517 321.261L242.867 322.41L243.933 323.495L244.535 324.192L244.978 324.735L245.822 325.919L246.152 326.433L246.541 327.59L246.599 328.845L246.328 330.184L246.056 331.15L245.88 331.752L245.471 332.849L245.274 333.364L244.777 334.441L244.505 335.015L244.008 335.918L243.561 336.722L243.235 337.276L242.453 338.421L241.977 339.058L241.316 339.918L240.698 340.639L240.305 341.066L239.343 341.973ZM238.19 328.56L239.64 329.716L240.752 330.706L241.542 331.4L242.177 331.807L242.223 331.831L242.884 332.116L243.628 332.196L243.448 331.562L243.001 330.556L241.814 329.154L240.727 328.033L239.565 326.98L238.332 325.998L237.032 325.091L236.351 324.679L235.674 324.267L234.261 323.531L232.798 322.881L231.302 322.327L229.772 321.863L227.929 321.432L226.779 321.471L226.098 321.586L226.487 322.192L227.038 322.64L227.076 322.667L227.736 323.04L228.731 323.432L230.144 323.97L231.866 324.731L233.521 325.57L234.257 325.99L235.13 326.489L235.979 327.031L236.689 327.487L238.19 328.56Z" fill="white"/>
<path fill-rule="evenodd" clip-rule="evenodd" d="M72.9419 220.055L73.6734 218.974L74.0287 218.519L74.6431 217.794L75.387 217.002L75.9471 216.424L76.9586 215.457L77.4602 215.038L78.1958 214.452L79.0192 213.802L79.5542 213.426L80.5615 212.737L81.0505 212.444L82.0954 211.834L82.6764 211.545L83.621 211.089L84.9417 210.551L86.2458 210.341L87.5206 210.456L88.1225 210.65L89.5268 211.18L90.1789 211.478L91.0232 211.885L92.369 212.642L93.8402 213.644L95.0482 214.63L95.6333 215.176L96.2101 215.739L97.2425 216.883L98.2916 218.285L99.0815 219.564L99.5079 220.368L99.8172 220.986L100.369 222.32L100.574 222.891L100.687 224.099L100.457 225.334L99.8798 226.586L99.395 227.473L99.0857 228.023L98.4337 229.009L98.1244 229.473L97.3888 230.419L96.9917 230.926L96.3021 231.702L95.6793 232.395L95.2321 232.87L94.2081 233.825L93.5936 234.348L92.7535 235.052L91.9845 235.627L91.5038 235.963L90.3544 236.652L89.8737 236.898L89.3011 237.132L88.2897 237.452L87.5373 237.634L86.4464 237.516L85.8989 237.389L85.3932 237.191L84.3106 236.688L83.738 236.391L82.1581 235.393L80.6451 234.308L79.1947 233.14L77.853 231.932L76.5824 230.653L75.3578 229.275L74.2251 227.833L73.176 226.328L72.8709 225.786L72.3443 224.756L72.1395 224.277L72.0057 223.758L71.8887 222.72L72.0851 222.008L72.4278 221.053L72.6744 220.511L72.9419 220.055ZM87.0191 218.277L88.4444 219.438L89.0672 220L89.807 220.669L90.505 221.374L91.0943 221.964L92.3106 223.318L93.46 224.752L94.3168 225.944L94.9354 226.784L95.4579 227.314L95.4955 227.346L96.0765 227.762L96.7828 227.991L96.7577 227.334L96.5488 226.261L95.7128 224.649L94.9145 223.33L94.0201 222.063L93.042 220.847L91.9804 219.699L91.412 219.156L90.8435 218.614L89.6356 217.6L88.3608 216.665L87.0233 215.814L85.6399 215.05L83.9387 214.246L82.8102 214.048L82.1164 214.016L82.3546 214.689L82.7935 215.24L82.8228 215.275L83.3828 215.774L84.2647 216.364L85.5186 217.184L87.0191 218.277Z" fill="white"/>
<path fill-rule="evenodd" clip-rule="evenodd" d="M70.6049 278.492L70.3416 278.04L70.0992 277.494L69.7606 276.535L69.5684 275.822L69.6896 274.789L69.8275 274.27L70.0365 273.791L70.5673 272.765L70.8808 272.223L71.934 270.726L73.0793 269.292L74.3081 267.918L75.5871 266.647L76.9371 265.443L78.3916 264.282L79.913 263.209L81.4971 262.215L82.0739 261.926L83.1606 261.427L83.6664 261.233L84.2139 261.106L85.309 260.995L86.0571 261.182L87.0686 261.506L87.6412 261.74L88.1177 261.993L89.2629 262.686L89.7436 263.023L90.5085 263.605L91.3444 264.31L91.9546 264.841L92.9703 265.799L93.4175 266.274L94.0361 266.971L94.7216 267.752L95.1186 268.258L95.8417 269.213L96.1552 269.676L96.7989 270.666L97.104 271.217L97.5846 272.112L98.1531 273.363L98.3746 274.599L98.2534 275.807L98.0486 276.377L97.4885 277.707L97.175 278.325L96.7445 279.125L95.9462 280.4L94.8888 281.798L93.848 282.939L93.2712 283.493L92.6777 284.04L91.4698 285.018L89.9902 286.012L88.6402 286.76L87.7917 287.164L87.1355 287.457L85.7311 287.98L85.1292 288.174L83.8544 288.281L82.5504 288.063L81.2296 287.521L80.2934 287.057L79.7124 286.764L78.6717 286.147L78.1826 285.853L77.1795 285.156L76.6487 284.78L75.8295 284.127L75.0981 283.537L74.5965 283.113L73.5892 282.143L73.0333 281.561L72.2935 280.765L71.6874 280.036L71.3322 279.581L70.6049 278.492ZM84.6737 280.345L83.1648 281.434L81.9067 282.25L81.0206 282.832L80.4606 283.327L80.4271 283.363L79.9883 283.913L79.7458 284.582L80.4397 284.559L81.5724 284.361L83.2735 283.569L84.6653 282.812L86.0028 281.965L87.286 281.038L88.4981 280.032L89.0707 279.494L89.6433 278.955L90.7133 277.81L91.6997 276.603L92.5983 275.339L93.405 274.025L94.2534 272.413L94.4624 271.343L94.4959 270.686L93.7853 270.912L93.2044 271.328L93.1667 271.355L92.6401 271.886L92.0173 272.722L91.1521 273.91L89.9944 275.335L88.7739 276.682L88.1762 277.272L87.474 277.973L86.7301 278.634L86.1073 279.193L84.6737 280.345Z" fill="white"/>
<path fill-rule="evenodd" clip-rule="evenodd" d="M-1.28906 378.042V360.222H-1.20547V370.914H11.3335V360.222H34.2966V378.042H-1.28906Z" fill="#E6E6E6"/>
<path fill-rule="evenodd" clip-rule="evenodd" d="M109.531 378.042V360.222H136.724V370.914H149.263V360.222H172.272V378.042H109.531Z" fill="#E6E6E6"/>
<path fill-rule="evenodd" clip-rule="evenodd" d="M274.653 360.222V370.914H287.192V360.222H287.234V378.042H247.506V360.222H274.653Z" fill="#E6E6E6"/>
<path fill-rule="evenodd" clip-rule="evenodd" d="M109.531 378.042H34.2969V360.222H109.531V378.042Z" fill="white"/>
<path fill-rule="evenodd" clip-rule="evenodd" d="M247.505 378.042H172.271V360.222H247.505V378.042Z" fill="white"/>
<path fill-rule="evenodd" clip-rule="evenodd" d="M247.505 378.042H172.271V360.222H247.505V378.042Z" fill="white"/>
<path fill-rule="evenodd" clip-rule="evenodd" d="M109.531 378.042H34.2969V360.222H109.531V378.042Z" fill="white"/>
<path fill-rule="evenodd" clip-rule="evenodd" d="M109.531 370.914H34.2969V364.578H109.531V370.914Z" fill="white"/>
<path fill-rule="evenodd" clip-rule="evenodd" d="M76.9297 370.914V364.578H80.2734V370.914H76.9297Z" fill="white"/>
<path fill-rule="evenodd" clip-rule="evenodd" d="M106.188 370.914V364.578H109.531V370.914H106.188Z" fill="white"/>
<path fill-rule="evenodd" clip-rule="evenodd" d="M34.2969 370.914V364.578H37.6406V370.914H34.2969Z" fill="white"/>
<path fill-rule="evenodd" clip-rule="evenodd" d="M247.505 370.914H172.271V364.578H247.505V370.914Z" fill="white"/>
<path fill-rule="evenodd" clip-rule="evenodd" d="M214.904 370.914V364.578H218.248V370.914H214.904Z" fill="white"/>
<path fill-rule="evenodd" clip-rule="evenodd" d="M244.162 370.914V364.578H247.506V370.914H244.162Z" fill="white"/>
<path fill-rule="evenodd" clip-rule="evenodd" d="M172.271 370.914V364.578H175.615V370.914H172.271Z" fill="white"/>
<path fill-rule="evenodd" clip-rule="evenodd" d="M247.505 370.914H172.271V364.578H247.505V370.914Z" fill="white"/>
<path fill-rule="evenodd" clip-rule="evenodd" d="M247.463 370.914V364.578H247.505V370.914H247.463Z" fill="white"/>
<path fill-rule="evenodd" clip-rule="evenodd" d="M172.271 370.914V364.578H172.313V370.914H172.271Z" fill="white"/>
<path fill-rule="evenodd" clip-rule="evenodd" d="M109.531 370.914H34.2969V364.578H109.531V370.914Z" fill="white"/>
<path fill-rule="evenodd" clip-rule="evenodd" d="M109.488 370.914V364.578H109.53V370.914H109.488Z" fill="white"/>
<path fill-rule="evenodd" clip-rule="evenodd" d="M34.2969 370.914V364.578H34.3387V370.914H34.2969Z" fill="white"/>
<path fill-rule="evenodd" clip-rule="evenodd" d="M11.3379 311.512H69.0172V316.264H11.3379V311.512Z" fill="#E6E6E6"/>
<path fill-rule="evenodd" clip-rule="evenodd" d="M127.533 316.264V311.512H136.728V316.264H127.533Z" fill="#E6E6E6"/>
<path fill-rule="evenodd" clip-rule="evenodd" d="M69.0176 316.264V313.888H127.533V316.264H69.0176Z" fill="white"/>
<path fill-rule="evenodd" clip-rule="evenodd" d="M46.865 208.943V288.146H9.24805V208.943H46.865Z" fill="white"/>
<path fill-rule="evenodd" clip-rule="evenodd" d="M275.697 81.9442V104.517L275.517 104.937L275.07 105.111H257.516L257.073 104.937L256.889 104.517V81.9442L257.073 81.5244L257.516 81.3502H275.07L275.517 81.5244L275.697 81.9442Z" fill="white"/>
<path fill-rule="evenodd" clip-rule="evenodd" d="M273.189 92.2407L273.929 92.5337L274.234 93.2307L273.929 93.9316L273.189 94.2207L271.438 94.0623L271.041 93.9356L268.825 93.6703L268.537 93.5237L268.42 93.2307L268.537 92.9376L268.825 92.7911L271.041 92.5298L271.438 92.3991L273.189 92.2407Z" fill="white"/>
<path fill-rule="evenodd" clip-rule="evenodd" d="M256.93 115.614H275.697V131.454H256.93L255.083 131.268L253.34 130.718L251.785 129.839L250.506 128.67L249.658 127.506L249.039 126.243L248.659 124.904L248.529 123.534L248.659 122.164L249.039 120.825L249.658 119.558L250.506 118.398L251.785 117.229L253.34 116.346L255.083 115.8L256.93 115.614Z" fill="white"/>
<path fill-rule="evenodd" clip-rule="evenodd" d="M275.697 130.492L275.563 130.741L275.379 130.896L275.179 130.936L274.978 130.852L271.417 128.239L271.279 128.092L271.17 127.878L271.112 127.625L271.104 127.352V119.716L271.112 119.443L271.17 119.19L271.279 118.976L271.417 118.829L274.978 116.216L275.179 116.132L275.379 116.172L275.563 116.326L275.697 116.576V130.492Z" fill="white"/>
<path fill-rule="evenodd" clip-rule="evenodd" d="M200.467 46.9363H275.701V76.6376H200.467V46.9363Z" fill="white"/>
<path fill-rule="evenodd" clip-rule="evenodd" d="M200.467 46.9363H275.701V76.6376H200.467V46.9363Z" fill="white"/>
<path fill-rule="evenodd" clip-rule="evenodd" d="M275.685 176.881H199.615V153.12H275.685V176.881Z" fill="white"/>
<path fill-rule="evenodd" clip-rule="evenodd" d="M97.4186 70.6894H9.24023V46.9284H97.4186V70.6894Z" fill="white"/>
<path fill-rule="evenodd" clip-rule="evenodd" d="M34.3182 70.6894V141.973H9.24023V70.6894H34.3182Z" fill="white"/>
<path fill-rule="evenodd" clip-rule="evenodd" d="M54.5131 176.695L54.3459 176.937L54.1996 177.159L54.1369 177.345L54.0157 177.713L53.9656 177.86L53.928 178.066L53.8653 178.386L53.8402 178.64L53.8611 178.814L53.9363 178.869L54.0408 178.897L54.4295 178.945L55.5998 178.996L56.3145 179.044L56.8872 179.075L57.535 179.135L57.8234 179.163L58.4294 179.218L58.7262 179.25L58.8474 179.273L58.9435 179.297V179.321V179.749L58.8558 179.772L58.768 179.784L58.6719 179.796L58.3668 179.82L57.9822 179.844L57.7565 179.852L56.8872 179.883L53.8987 179.955L52.1391 179.978H48.1099L46.881 179.958L45.6522 179.943L44.0347 179.899L43.0776 179.875L42.4924 179.852L41.8989 179.824L41.5896 179.8L41.4809 179.788L41.343 179.764L41.2928 179.741V179.313L41.3346 179.285L41.598 179.242L41.8195 179.218L42.4255 179.163L42.7139 179.139L43.1194 179.099L43.9344 179.044L44.9333 178.984L45.8194 178.945L46.0618 178.921L46.3168 178.869L46.4171 178.814V178.64L46.3962 178.386V178.343L46.3252 178.066L46.2875 177.891L46.2457 177.713L46.2332 177.662L46.1956 177.559L46.1747 177.503L46.112 177.345L45.9657 177L45.8863 176.897L45.74 176.695L45.46 176.339L44.9291 175.872L43.9762 175.155L43.391 174.806L42.3085 173.828L41.3597 172.862L40.9668 172.264L40.9125 172.228L40.3859 171.163L40.0598 170.026L39.9512 168.858L40.064 167.69L40.227 167.12L40.4736 166.308L41.088 165.143L41.9073 164.094L42.4088 163.643L43.4788 162.795L44.8497 162.07L45.5937 161.825L46.4714 161.516L48.8956 161.104L50.1245 161.096L51.0607 161.08L53.4933 161.445L54.6594 161.825L55.9551 162.324L57.2717 163.136L57.8443 163.643L58.4796 164.241L59.2696 165.31L59.8505 166.49L60.0261 167.12L60.0679 167.167L60.2769 168.327L60.2685 169.5L60.0428 170.656L59.6039 171.757L59.2863 172.264L58.4838 173.341L57.9446 173.828L57.4807 174.315L56.2769 175.155L55.3281 175.872L54.9687 176.161L54.5131 176.695Z" fill="white"/>
<path fill-rule="evenodd" clip-rule="evenodd" d="M75.7204 150.685L75.9753 150.847L76.2094 150.982L76.41 151.041L76.7987 151.16L76.9534 151.208L77.1665 151.243L77.5093 151.303L77.7768 151.326L77.9607 151.303L78.015 151.231L78.0443 151.132L78.0944 150.768L78.1529 149.655L78.1989 148.978L78.2365 148.439L78.2992 147.826L78.3243 147.548L78.3828 146.974L78.4163 146.693L78.4413 146.578L78.4664 146.491L78.4957 146.487H78.9429L78.9721 146.57L78.9847 146.657L78.9972 146.748L79.0223 147.034L79.0432 147.398L79.0516 147.612L79.085 148.439L79.1602 151.267L79.1853 152.934V156.756L79.1686 157.916L79.1477 159.08L79.1059 160.617L79.0808 161.52L79.0557 162.078L79.0265 162.637L79.0014 162.93L78.9847 163.033L78.9638 163.163L78.9345 163.211H78.4873L78.458 163.171L78.4079 162.922L78.387 162.716L78.3285 162.142L78.2992 161.864L78.2574 161.484L78.2031 160.708L78.1362 159.766L78.0986 158.922L78.0693 158.692L78.0192 158.455L77.9607 158.356H77.7768L77.5093 158.376L77.4591 158.38L77.1665 158.443L76.9826 158.482L76.7987 158.518L76.7402 158.53L76.6357 158.566L76.5772 158.585L76.41 158.645L76.0464 158.783L75.9377 158.863L75.7245 158.997L75.3484 159.263L74.8552 159.77L74.0987 160.669L73.7308 161.227L72.6985 162.249L71.6786 163.148L71.0475 163.52L71.0099 163.571L69.8856 164.074L68.686 164.379L67.453 164.482L66.2158 164.379L65.6181 164.225L64.7613 163.987L63.5283 163.405L62.4249 162.629L61.9484 162.158L61.0539 161.144L60.2891 159.841L60.0299 159.136L59.7039 158.308L59.265 156.011L59.2609 154.843L59.2441 153.956L59.6287 151.651L60.0257 150.55L60.5566 149.323L61.4134 148.075L61.9484 147.533L62.5795 146.927L63.7038 146.178L64.9536 145.628L65.6139 145.461L65.6683 145.422L66.8887 145.224L68.1301 145.236L69.3506 145.45L70.5083 145.865L71.0433 146.166L72.1802 146.927L72.6985 147.434L73.2084 147.873L74.0945 149.014L74.8552 149.917L75.1561 150.253L75.7204 150.685Z" fill="white"/>
<path fill-rule="evenodd" clip-rule="evenodd" d="M20.1739 176.699L19.7183 176.165L19.3589 175.876L18.4101 175.159L17.2064 174.319L16.7424 173.832L16.2032 173.345L15.4007 172.268L15.0831 171.761L14.6442 170.66L14.4185 169.508L14.4102 168.331L14.615 167.175L14.6568 167.124L14.8365 166.494L15.4133 165.314L16.2032 164.245L16.8385 163.647L17.4153 163.14L18.7319 162.332L20.0276 161.829L21.1896 161.449L23.6221 161.084L24.5584 161.1L25.7914 161.104L28.2114 161.52L29.0891 161.829L29.8331 162.074L31.2082 162.795L32.2782 163.647L32.7756 164.094L33.5948 165.143L34.2092 166.312L34.46 167.12L34.623 167.69L34.7317 168.858L34.623 170.03L34.3012 171.163L33.7745 172.228L33.7202 172.268L33.3273 172.866L32.3785 173.832L31.296 174.81L30.7108 175.159L29.7579 175.876L29.2271 176.343L28.947 176.695L28.8049 176.901L28.7213 177.004L28.575 177.349L28.5123 177.507L28.4914 177.563L28.4538 177.662L28.4413 177.717L28.4037 177.891L28.3619 178.066L28.295 178.343L28.2908 178.39L28.2699 178.644V178.818L28.3744 178.869L28.6252 178.921L28.8676 178.949L29.7579 178.984L30.7526 179.044L31.5718 179.099L31.9731 179.139L32.2657 179.166L32.8717 179.218L33.0891 179.242L33.3524 179.289L33.3942 179.313V179.741L33.344 179.764L33.2061 179.788L33.0974 179.8L32.7881 179.824L32.1988 179.856L31.6095 179.875L30.6565 179.903L29.0348 179.943L27.806 179.962L26.5813 179.982H22.548L20.7883 179.958L17.804 179.887L16.9305 179.856L16.7048 179.848L16.3203 179.828L16.0193 179.804L15.9232 179.792L15.8312 179.78L15.7435 179.753V179.329L15.7476 179.301L15.8396 179.277L15.9608 179.254L16.2576 179.222L16.8636 179.166L17.1562 179.143L17.804 179.083L18.3725 179.048L19.0872 179L20.2617 178.949L20.6462 178.901L20.7507 178.873L20.8259 178.818L20.851 178.644L20.8259 178.39L20.7632 178.069L20.7256 177.864L20.6713 177.717L20.5501 177.349L20.4874 177.163L20.3411 176.941L20.1739 176.699Z" fill="white"/>
<path fill-rule="evenodd" clip-rule="evenodd" d="M192.107 215.731H275.701V279.093H192.107V215.731Z" fill="white"/>
<path fill-rule="evenodd" clip-rule="evenodd" d="M275.701 199.89V215.731H258.982V199.89H275.701Z" fill="white"/>
<path fill-rule="evenodd" clip-rule="evenodd" d="M275.701 279.094V294.934H258.982V279.094H275.701Z" fill="white"/>
<path fill-rule="evenodd" clip-rule="evenodd" d="M257.311 270.777V249.788H273.193V276.717H255.639V272.361L257.311 270.777Z" fill="white"/>
<path fill-rule="evenodd" clip-rule="evenodd" d="M257.311 245.036V224.047L255.639 222.463V218.107H273.193V245.036H257.311Z" fill="white"/>
<path fill-rule="evenodd" clip-rule="evenodd" d="M193.361 247.412H257.31V270.777L249.787 277.905H193.361V247.412Z" fill="white"/>
<path fill-rule="evenodd" clip-rule="evenodd" d="M193.361 247.412V216.919H249.787L257.31 224.047V247.412H193.361Z" fill="white"/>
<path fill-rule="evenodd" clip-rule="evenodd" d="M97.418 46.9284H122.496V94.5059H97.418V46.9284Z" fill="white"/>
<path fill-rule="evenodd" clip-rule="evenodd" d="M141.305 46.9284V83.7342H126.676V46.9284H141.305Z" fill="white"/>
<path fill-rule="evenodd" clip-rule="evenodd" d="M175.732 336.461H247.769V360.222H175.732V336.461Z" fill="white"/>
<path fill-rule="evenodd" clip-rule="evenodd" d="M247.77 336.461H274.62V360.222H247.77V336.461Z" fill="white"/>
<path fill-rule="evenodd" clip-rule="evenodd" d="M149.271 336.461H175.733V360.222H149.271V336.461Z" fill="white"/>
<path fill-rule="evenodd" clip-rule="evenodd" d="M152.924 251.289H152.506V239.409H152.924V251.289Z" fill="white"/>
<path fill-rule="evenodd" clip-rule="evenodd" d="M152.507 245.844H149.686V244.854H152.507V245.844Z" fill="white"/>
<path fill-rule="evenodd" clip-rule="evenodd" d="M149.684 245.943H149.266V244.755H149.684V245.943Z" fill="white"/>
<path fill-rule="evenodd" clip-rule="evenodd" d="M155.014 263.677H153.969L152.924 254.513V236.189L153.969 227.025H155.014V263.677Z" fill="white"/>
<path fill-rule="evenodd" clip-rule="evenodd" d="M201.119 148.368V124.607H226.197V148.368H201.119Z" fill="white"/>
<path fill-rule="evenodd" clip-rule="evenodd" d="M141.305 83.7342V118.318H126.676V83.7342H141.305Z" fill="white"/>
<path fill-rule="evenodd" clip-rule="evenodd" d="M97.4473 118.318V94.5058H122.496V118.318H97.4473Z" fill="white"/>
<path fill-rule="evenodd" clip-rule="evenodd" d="M9.23438 169.694L9.23855 139.992L67.7538 139.996L67.7496 169.698L9.23438 169.694Z" fill="white"/>
<path fill-rule="evenodd" clip-rule="evenodd" d="M145.078 306.759H132.539V208.563H145.078V306.759Z" fill="white"/>
<path fill-rule="evenodd" clip-rule="evenodd" d="M51.6465 248.394L52.2609 244.723L54.0414 241.409L56.8125 238.783L60.3109 237.092L64.1855 236.514L68.06 237.092L71.5542 238.783L74.3295 241.409L76.11 244.723L76.7245 248.394L76.11 252.065L74.3295 255.376L71.5542 258.006L68.06 259.693L64.1855 260.275L60.3109 259.693L56.8125 258.006L54.0414 255.376L52.2609 252.065L51.6465 248.394Z" fill="white"/>
<path fill-rule="evenodd" clip-rule="evenodd" d="M286.138 207.323L286.146 87.5201V311.512H275.697V207.323H286.138Z" fill="#E6E6E6"/>
<path fill-rule="evenodd" clip-rule="evenodd" d="M275.697 87.5043V46.9363H275.701L275.697 87.5043Z" fill="#E6E6E6"/>
<path fill-rule="evenodd" clip-rule="evenodd" d="M9.24805 37.0279H144.209V46.9284H9.24805V37.0279Z" fill="#E6E6E6"/>
<path fill-rule="evenodd" clip-rule="evenodd" d="M186.424 37.0279H190.457V46.9284H186.424V37.0279Z" fill="#E6E6E6"/>
<path fill-rule="evenodd" clip-rule="evenodd" d="M280.918 37.0279V37.0359L190.457 37.0279H280.918Z" fill="#E6E6E6"/>
<path fill-rule="evenodd" clip-rule="evenodd" d="M144.209 46.9284V37.0279H145.881V46.9284H144.209Z" fill="white"/>
<path fill-rule="evenodd" clip-rule="evenodd" d="M186.424 37.0279V46.9284H184.752V37.0279H186.424Z" fill="white"/>
<path fill-rule="evenodd" clip-rule="evenodd" d="M134.483 16.0945L129.468 20.8506H9.24798L-1.20117 16.0945H134.483Z" fill="#E6E6E6"/>
<path fill-rule="evenodd" clip-rule="evenodd" d="M77.3769 37.0279H72.3613V20.8506H77.3769V37.0279Z" fill="#E6E6E6"/>
<path fill-rule="evenodd" clip-rule="evenodd" d="M-1.20117 16.0945L9.24798 20.8506V311.511H-1.20117V16.0945Z" fill="#E6E6E6"/>
<path fill-rule="evenodd" clip-rule="evenodd" d="M126.676 172.921H136.728V176.881H122.496L126.676 172.921Z" fill="#E6E6E6"/>
<path fill-rule="evenodd" clip-rule="evenodd" d="M149.266 172.921H152.944V176.881H149.266V172.921Z" fill="#E6E6E6"/>
<path fill-rule="evenodd" clip-rule="evenodd" d="M195.434 172.921L199.614 176.881H190.979V172.921H195.434Z" fill="#E6E6E6"/>
<path fill-rule="evenodd" clip-rule="evenodd" d="M190.98 172.921V176.881H189.309V172.921H190.98Z" fill="white"/>
<path fill-rule="evenodd" clip-rule="evenodd" d="M152.945 176.881V172.921H154.617V176.881H152.945Z" fill="white"/>
<path fill-rule="evenodd" clip-rule="evenodd" d="M227.565 148.368V153.12H195.436L200.451 148.368H227.565Z" fill="#E6E6E6"/>
<path fill-rule="evenodd" clip-rule="evenodd" d="M149.268 208.563V313.603V311.512H145.088V208.563H149.268Z" fill="#E6E6E6"/>
<path fill-rule="evenodd" clip-rule="evenodd" d="M195.436 153.12H199.615V176.881L195.436 172.921V153.12Z" fill="#E6E6E6"/>
<path fill-rule="evenodd" clip-rule="evenodd" d="M122.496 46.9284H126.676V125.011H122.496V46.9284Z" fill="#E6E6E6"/>
<path fill-rule="evenodd" clip-rule="evenodd" d="M122.496 176.881V161.049H126.676V172.921L122.496 176.881Z" fill="#E6E6E6"/>
<path fill-rule="evenodd" clip-rule="evenodd" d="M122.496 125.011H126.676V126.595H122.496V125.011Z" fill="white"/>
<path fill-rule="evenodd" clip-rule="evenodd" d="M126.676 161.049H122.496V159.465H126.676V161.049Z" fill="white"/>
<path fill-rule="evenodd" clip-rule="evenodd" d="M134.482 37.0279H129.467V20.8506L134.482 16.0945V37.0279Z" fill="#E6E6E6"/>
<path fill-rule="evenodd" clip-rule="evenodd" d="M195.436 153.12V114.972H200.451V148.368L195.436 153.12Z" fill="#E6E6E6"/>
<path fill-rule="evenodd" clip-rule="evenodd" d="M200.451 46.9284V82.8947H195.436V46.9284H200.451Z" fill="#E6E6E6"/>
<path fill-rule="evenodd" clip-rule="evenodd" d="M195.436 114.972V113.388H200.451V114.972H195.436Z" fill="white"/>
<path fill-rule="evenodd" clip-rule="evenodd" d="M200.451 82.8947V84.4787H195.436V82.8947H200.451Z" fill="white"/>
<path fill-rule="evenodd" clip-rule="evenodd" d="M72.361 20.8506V23.2228H22.2051L19.6973 20.8506H72.361Z" fill="#E6E6E6"/>
<path fill-rule="evenodd" clip-rule="evenodd" d="M72.361 34.3112V36.6913H19.6973L22.2051 34.3112H72.361Z" fill="#E6E6E6"/>
<path fill-rule="evenodd" clip-rule="evenodd" d="M57.3144 34.3113H54.8066V23.2228H57.3144V34.3113Z" fill="#E6E6E6"/>
<path fill-rule="evenodd" clip-rule="evenodd" d="M22.2051 34.3112L19.6973 36.6913V20.8506L22.2051 23.2228V34.3112Z" fill="#E6E6E6"/>
<path fill-rule="evenodd" clip-rule="evenodd" d="M30.5644 34.3113H28.0566V23.2228H30.5644V34.3113Z" fill="#E6E6E6"/>
<path fill-rule="evenodd" clip-rule="evenodd" d="M72.3613 34.3113H69.8535V20.8506H72.3613V34.3113Z" fill="#E6E6E6"/>
<path fill-rule="evenodd" clip-rule="evenodd" d="M59.8222 34.3113H57.3145V23.2228H59.8222V34.3113Z" fill="#E6E6E6"/>
<path fill-rule="evenodd" clip-rule="evenodd" d="M227.619 153.12L230.127 150.744H262.728L265.236 153.12H227.619Z" fill="#E6E6E6"/>
<path fill-rule="evenodd" clip-rule="evenodd" d="M230.127 143.616L227.619 141.24H265.236V143.616H230.127Z" fill="#E6E6E6"/>
<path fill-rule="evenodd" clip-rule="evenodd" d="M227.619 141.24L230.127 143.616V150.744L227.619 153.12V141.24Z" fill="#E6E6E6"/>
<path fill-rule="evenodd" clip-rule="evenodd" d="M262.729 143.616H265.236V153.12L262.729 150.744V143.616Z" fill="#E6E6E6"/>
<path fill-rule="evenodd" clip-rule="evenodd" d="M254.369 143.616H256.877V150.744H254.369V143.616Z" fill="#E6E6E6"/>
<path fill-rule="evenodd" clip-rule="evenodd" d="M265.236 153.12V150.546H275.694V153.12H265.236Z" fill="#E6E6E6"/>
<path fill-rule="evenodd" clip-rule="evenodd" d="M11.3339 370.914H-1.20508L-1.2009 311.512H11.3381L11.3339 370.914Z" fill="#E6E6E6"/>
<path fill-rule="evenodd" clip-rule="evenodd" d="M149.262 370.914H136.723L136.727 311.512H149.266L149.262 370.914Z" fill="#E6E6E6"/>
<path fill-rule="evenodd" clip-rule="evenodd" d="M286.139 207.323H275.689L275.702 46.9363H286.151L286.139 207.323Z" fill="#E6E6E6"/>
<path fill-rule="evenodd" clip-rule="evenodd" d="M149.268 208.563H136.729V172.921H149.268V208.563Z" fill="#E6E6E6"/>
<path fill-rule="evenodd" clip-rule="evenodd" d="M287.191 370.914H274.652L274.657 311.512H287.195L287.191 370.914Z" fill="#E6E6E6"/>
<path fill-rule="evenodd" clip-rule="evenodd" d="M286.171 37.0359V46.9363L190.457 46.9284V37.0279L286.171 37.0359Z" fill="#E6E6E6"/>
<path fill-rule="evenodd" clip-rule="evenodd" d="M72.3612 70.6894H47.2832V46.9284H72.3612V70.6894Z" fill="white"/>
<path fill-rule="evenodd" clip-rule="evenodd" d="M70.4803 67.7193H49.1641L48.5747 67.4896L48.3281 66.9272V48.7104L48.5747 48.1521L49.1641 47.9184H70.4803L71.0739 48.1521L71.3163 48.7104V66.9272L71.0739 67.4896L70.4803 67.7193Z" fill="white"/>
<path fill-rule="evenodd" clip-rule="evenodd" d="M60.3576 51.1737V50.2945L60.2029 49.9381L59.8226 49.7876L59.4464 49.9381L59.2876 50.2945V51.1737L58.8027 50.5955L58.8612 49.8549L59.4339 49.352H60.2154L60.7881 49.8549L60.8466 50.5955L60.3576 51.1737Z" fill="white"/>
<path fill-rule="evenodd" clip-rule="evenodd" d="M60.3571 50.2945V57.1139L60.3111 57.2327L59.8221 57.403L59.3331 57.2327L59.2871 57.1139V50.2945L59.4459 49.9381L59.8221 49.7876L60.2024 49.9381L60.3571 50.2945Z" fill="white"/>
<path fill-rule="evenodd" clip-rule="evenodd" d="M65.5731 50.1757L65.0297 50.2114L64.8082 49.8391L64.3777 49.7124L63.9681 49.8985L63.8009 50.2945L63.9681 50.6945L64.3777 50.8806L64.8082 50.7499L65.0297 50.3777L65.5731 50.4173L65.1676 51.1341L64.3568 51.3915L63.5794 51.0509L63.2617 50.2945L63.5794 49.5421L64.3568 49.2015L65.1676 49.4589L65.5731 50.1757Z" fill="white"/>
<path fill-rule="evenodd" clip-rule="evenodd" d="M63.8008 50.2945L63.9847 49.8827L64.4194 49.7124L64.8582 49.8827L65.038 50.2945L64.8582 50.7103L64.4194 50.8806L63.9847 50.7103L63.8008 50.2945Z" fill="white"/>
<path fill-rule="evenodd" clip-rule="evenodd" d="M66.7803 50.2312L66.8138 50.2668L66.8179 50.3183L66.7845 50.3579L65.0332 50.3777V50.2074L66.7887 50.2312H66.7803Z" fill="white"/>
<path fill-rule="evenodd" clip-rule="evenodd" d="M54.0742 50.1757L54.4755 49.4589L55.2863 49.1975L56.0637 49.5381L56.3814 50.2945L56.0679 51.0469L55.2905 51.3915L54.4755 51.1341L54.0742 50.4173L54.6134 50.3777L54.8391 50.7499L55.2696 50.8806L55.675 50.6945L55.8422 50.2945L55.675 49.8985L55.2696 49.7124L54.8391 49.8391L54.6134 50.2113L54.0742 50.1757Z" fill="white"/>
<path fill-rule="evenodd" clip-rule="evenodd" d="M55.8427 50.2945L55.6629 50.7103L55.2241 50.8806L54.7894 50.7103L54.6055 50.2945L54.7894 49.8827L55.2241 49.7124L55.6629 49.8827L55.8427 50.2945Z" fill="white"/>
<path fill-rule="evenodd" clip-rule="evenodd" d="M52.8635 50.2312H52.8593L54.6148 50.2074L54.6106 50.3777L52.8593 50.3579L52.8301 50.3183V50.2668L52.8635 50.2312Z" fill="white"/>
<path fill-rule="evenodd" clip-rule="evenodd" d="M137.037 255.744V237.421H141.873V255.744H137.037Z" fill="white"/>
<path fill-rule="evenodd" clip-rule="evenodd" d="M138.412 264.908V228.257H139.457L140.502 237.421V255.744L139.457 264.908H138.412Z" fill="white"/>
<path fill-rule="evenodd" clip-rule="evenodd" d="M9.24023 118.726V94.7079H34.3182V118.726H9.24023Z" fill="white"/>
<path fill-rule="evenodd" clip-rule="evenodd" d="M11.5391 118.204V95.2346H32.0194V118.204H11.5391Z" fill="white"/>
<ellipse cx="76.6726" cy="338.088" rx="14.7449" ry="13.9706" fill="#00A0DC"/>
<path d="M76.0742 334.252H80.0427V335.66H77.278L76.9324 337.122C77.0284 337.097 77.1225 337.079 77.2146 337.068C77.3068 337.053 77.3951 337.046 77.4796 337.046C78.2476 337.046 78.885 337.295 79.3918 337.794C79.9025 338.288 80.1579 338.923 80.1579 339.698C80.1579 340.48 79.8756 341.141 79.3112 341.679C78.7506 342.214 78.0671 342.481 77.2607 342.481C76.5388 342.481 75.9187 342.287 75.4003 341.897C74.882 341.508 74.5421 340.975 74.3809 340.298H76.0742C76.2048 340.549 76.3756 340.74 76.5868 340.871C76.8019 340.999 77.038 341.062 77.2953 341.062C77.6524 341.062 77.9557 340.941 78.2053 340.697C78.4549 340.453 78.5797 340.14 78.5797 339.758C78.5797 339.387 78.4626 339.083 78.2284 338.847C77.998 338.607 77.7177 338.487 77.3874 338.487C77.2108 338.487 77.0361 338.528 76.8633 338.612C76.6944 338.696 76.5273 338.821 76.3622 338.989L75.049 338.71L76.0742 334.252Z" fill="white"/>
<ellipse cx="240.341" cy="100.588" rx="14.7449" ry="13.9706" fill="#00A0DC"/>
<path d="M241.677 96.5499H243.29V101.718H244.044V103.131H243.29V104.779H241.711V103.131H238.014V101.718L241.677 96.5499ZM241.711 101.718V99.0275L239.776 101.718H241.711Z" fill="white"/>
<ellipse cx="215.274" cy="252.868" rx="14.7449" ry="13.9706" fill="#00A0DC"/>
<path d="M214.946 251.012H213.396C213.477 250.419 213.702 249.943 214.07 249.582C214.585 249.08 215.232 248.829 216.011 248.829C216.706 248.829 217.288 249.038 217.757 249.457C218.229 249.875 218.465 250.372 218.465 250.947C218.465 251.303 218.361 251.629 218.154 251.924C217.951 252.218 217.653 252.457 217.261 252.638C217.776 252.784 218.177 253.039 218.465 253.402C218.757 253.763 218.903 254.188 218.903 254.679C218.903 255.4 218.622 256.011 218.062 256.513C217.501 257.012 216.787 257.261 215.919 257.261C215.098 257.261 214.427 257.026 213.909 256.557C213.391 256.084 213.107 255.442 213.057 254.63H214.652C214.721 255.045 214.873 255.354 215.107 255.558C215.345 255.758 215.645 255.858 216.006 255.858C216.382 255.858 216.693 255.744 216.939 255.514C217.188 255.285 217.313 255.005 217.313 254.674C217.313 254.31 217.146 254.003 216.812 253.752C216.478 253.501 215.996 253.372 215.366 253.364V252.055C215.754 252.025 216.042 251.969 216.23 251.885C216.422 251.798 216.57 251.68 216.674 251.531C216.781 251.381 216.835 251.223 216.835 251.056C216.835 250.838 216.754 250.657 216.593 250.516C216.432 250.37 216.221 250.297 215.96 250.297C215.729 250.297 215.52 250.365 215.332 250.499C215.144 250.63 215.015 250.801 214.946 251.012Z" fill="white"/>
<ellipse cx="78.1472" cy="183.015" rx="14.7449" ry="13.9706" fill="#00A0DC"/>
<path d="M77.6348 181.765H76.0624C76.1047 180.899 76.3907 180.219 76.9206 179.724C77.4544 179.226 78.1378 178.976 78.9711 178.976C79.4856 178.976 79.9387 179.08 80.3304 179.287C80.7259 179.491 81.0407 179.788 81.275 180.177C81.513 180.563 81.6321 180.955 81.6321 181.356C81.6321 181.832 81.4881 182.345 81.2001 182.895C80.916 183.444 80.3937 184.093 79.6335 184.843L78.6831 185.792H81.7012V187.206H75.832V186.475L78.4527 183.942C79.0863 183.335 79.5067 182.847 79.7141 182.48C79.9253 182.109 80.0309 181.774 80.0309 181.476C80.0309 181.167 79.9214 180.912 79.7026 180.712C79.4875 180.508 79.2092 180.406 78.8674 180.406C78.5218 180.406 78.2338 180.528 78.0034 180.772C77.7731 181.016 77.6502 181.347 77.6348 181.765Z" fill="white"/>
<ellipse cx="165.141" cy="110.368" rx="14.7449" ry="13.9706" fill="#00A0DC"/>
<path d="M164.513 106.531H166.926V114.559H165.325V107.966H163.58L164.513 106.531Z" fill="white"/>
</g>
<defs>
<clipPath id="clip0">
<rect width="289" height="380" fill="white"/>
</clipPath>
</defs>
</svg>
