<svg width="26" height="47" viewBox="0 0 26 47" fill="none" xmlns="http://www.w3.org/2000/svg">
<path d="M25.9564 1.23761C25.9564 0.554128 25.4022 0 24.7187 0H8.71373C8.179 0.000699215 7.70528 0.344712 7.53905 0.853042L0.0924086 23.6405C-0.166301 24.2731 0.136809 24.9957 0.769423 25.2544C0.920629 25.3163 1.08267 25.3476 1.24611 25.3465H6.83983L1.94533 44.4141C1.71529 45.0578 2.05038 45.7661 2.69401 45.9961C3.17315 46.1674 3.70822 46.0279 4.04297 45.6447L24.7327 21.5778C25.208 21.0866 25.1953 20.3031 24.7041 19.8278C24.4632 19.5946 24.1379 19.4691 23.8028 19.4801H16.5449L25.7606 1.91585C25.8903 1.71343 25.9583 1.47779 25.9564 1.23761ZM13.4055 20.1793C13.0927 20.7871 13.3317 21.5334 13.9395 21.8461C14.1139 21.9358 14.3071 21.9828 14.5032 21.9833H21.0968L5.58824 40.0161L9.60173 24.4376C9.76779 23.7745 9.36487 23.1024 8.70184 22.9363C8.60517 22.9121 8.50571 22.8996 8.40607 22.8993H2.9522L9.60872 2.48221H22.67L13.4055 20.1793Z" fill="#282828"/>
</svg>
