<svg width="83" height="83" viewBox="0 0 83 83" fill="none" xmlns="http://www.w3.org/2000/svg">
<path d="M41.9826 52.2449C48.0115 52.2449 52.8989 47.3576 52.8989 41.3287C52.8989 35.2998 48.0115 30.4125 41.9826 30.4125C35.9538 30.4125 31.0664 35.2998 31.0664 41.3287C31.0664 47.3576 35.9538 52.2449 41.9826 52.2449Z" stroke="#282828" stroke-width="2" stroke-miterlimit="10"/>
<path d="M42.276 22.6175C42.276 22.7208 42.2394 22.7909 42.2098 22.8246C42.2077 22.827 42.2058 22.8292 42.2039 22.8311C42.2021 22.8292 42.2001 22.827 42.198 22.8246C42.1685 22.7909 42.1318 22.7208 42.1318 22.6175V16.8265C42.1318 16.7203 42.1693 16.6493 42.1986 16.6157C42.2005 16.6135 42.2023 16.6116 42.2039 16.6098C42.2056 16.6116 42.2073 16.6135 42.2092 16.6157C42.2386 16.6493 42.276 16.7204 42.276 16.8265V22.6175ZM42.1867 22.845C42.1867 22.8449 42.1875 22.8444 42.1892 22.8438C42.1875 22.8448 42.1867 22.8451 42.1867 22.845ZM42.2186 22.8438C42.2204 22.8444 42.2212 22.8449 42.2212 22.845C42.2212 22.8451 42.2203 22.8448 42.2186 22.8438ZM42.2215 16.5955C42.2215 16.5956 42.2206 16.5961 42.219 16.5967C42.2206 16.5957 42.2214 16.5954 42.2215 16.5955ZM42.1889 16.5967C42.1872 16.5961 42.1864 16.5956 42.1864 16.5955C42.1864 16.5954 42.1872 16.5957 42.1889 16.5967Z" fill="#282828" stroke="#282828" stroke-width="2"/>
<path d="M42.276 66.5036C42.276 66.6098 42.2386 66.6809 42.2092 66.7145C42.2073 66.7166 42.2056 66.7186 42.2039 66.7203C42.2023 66.7186 42.2005 66.7166 42.1986 66.7145C42.1693 66.6809 42.1318 66.6098 42.1318 66.5036V60.7127C42.1318 60.6094 42.1685 60.5393 42.198 60.5055C42.2001 60.5031 42.2021 60.501 42.2039 60.4991C42.2058 60.501 42.2077 60.5031 42.2098 60.5055C42.2394 60.5393 42.276 60.6094 42.276 60.7127V66.5036ZM42.1864 66.7347C42.1864 66.7346 42.1872 66.7341 42.1889 66.7335C42.1872 66.7345 42.1864 66.7348 42.1864 66.7347ZM42.2189 66.7335C42.2206 66.7341 42.2215 66.7346 42.2214 66.7347C42.2214 66.7348 42.2206 66.7345 42.2189 66.7335ZM42.2212 60.4851C42.2212 60.4852 42.2204 60.4858 42.2186 60.4864C42.2203 60.4853 42.2212 60.485 42.2212 60.4851ZM42.1892 60.4864C42.1875 60.4858 42.1867 60.4853 42.1867 60.4851C42.1867 60.485 42.1875 60.4853 42.1892 60.4864Z" fill="#282828" stroke="#282828" stroke-width="2"/>
<path d="M61.4755 41.0688C61.3698 41.0688 61.2995 41.0316 61.2665 41.0027C61.2641 41.0006 61.2619 40.9986 61.26 40.9968C61.2618 40.9951 61.2638 40.9932 61.2661 40.9912C61.2999 40.9617 61.3708 40.9246 61.4755 40.9246H67.2699C67.3732 40.9246 67.4436 40.9613 67.4775 40.9909C67.4798 40.993 67.482 40.995 67.4839 40.9968C67.4819 40.9987 67.4796 41.0008 67.477 41.0031C67.444 41.032 67.3741 41.0688 67.2699 41.0688H61.4755ZM61.2466 40.9801C61.2467 40.9801 61.2473 40.981 61.2479 40.9827C61.2468 40.981 61.2465 40.9801 61.2466 40.9801ZM61.2471 41.0115C61.2465 41.0132 61.246 41.014 61.2459 41.014C61.2458 41.014 61.2461 41.0131 61.2471 41.0115ZM67.4978 41.0138C67.4977 41.0138 67.4971 41.013 67.4965 41.0114C67.4976 41.013 67.4979 41.0138 67.4978 41.0138ZM67.4958 40.9829C67.4964 40.9811 67.4969 40.9802 67.497 40.9802C67.4972 40.9802 67.4969 40.9811 67.4958 40.9829Z" fill="#282828" stroke="#282828" stroke-width="2"/>
<path d="M17.5856 41.0688C17.4814 41.0688 17.4115 41.032 17.3785 41.0031C17.3759 41.0008 17.3736 40.9987 17.3716 40.9968C17.3735 40.995 17.3757 40.993 17.3781 40.9909C17.4119 40.9613 17.4823 40.9246 17.5856 40.9246H23.38C23.4846 40.9246 23.5546 40.9616 23.5878 40.9906C23.5902 40.9927 23.5924 40.9947 23.5942 40.9965C23.5922 40.9985 23.5898 41.0007 23.5871 41.0031C23.5541 41.032 23.4842 41.0688 23.38 41.0688H17.5856ZM17.3585 40.9802C17.3586 40.9802 17.3591 40.9811 17.3597 40.9829C17.3586 40.9811 17.3583 40.9802 17.3585 40.9802ZM17.359 41.0114C17.3584 41.013 17.3579 41.0138 17.3578 41.0138C17.3576 41.0138 17.3579 41.013 17.359 41.0114ZM23.6077 41.0131C23.6076 41.0131 23.6071 41.0123 23.6065 41.0106C23.6075 41.0122 23.6078 41.0131 23.6077 41.0131ZM23.6059 40.9829C23.6065 40.9811 23.607 40.9802 23.6071 40.9802C23.6072 40.9802 23.607 40.9811 23.6059 40.9829Z" fill="#282828" stroke="#282828" stroke-width="2"/>
<path d="M55.5015 27.7996L55.4999 27.8012C55.428 27.8734 55.3529 27.8972 55.3077 27.9003C55.3054 27.9004 55.3033 27.9005 55.3013 27.9006C55.3014 27.8984 55.3015 27.896 55.3016 27.8935C55.3048 27.8465 55.3293 27.7707 55.4007 27.6994L55.4008 27.6992L59.4941 23.6043C59.4942 23.6041 59.4944 23.6039 59.4946 23.6038C59.5688 23.53 59.645 23.5063 59.6897 23.5032C59.6925 23.503 59.695 23.5029 59.6974 23.5029C59.6974 23.5063 59.6973 23.5102 59.697 23.5146C59.694 23.5601 59.6704 23.6344 59.5989 23.7057L59.5979 23.7067L55.5015 27.7996ZM55.2763 27.8983C55.2764 27.8982 55.2773 27.8984 55.279 27.8992C55.2771 27.8987 55.2763 27.8984 55.2763 27.8983ZM55.3028 27.9235C55.3035 27.9251 55.3038 27.9261 55.3037 27.9261C55.3036 27.9262 55.3032 27.9254 55.3028 27.9235ZM59.6954 23.4828C59.6944 23.4811 59.6941 23.4801 59.6942 23.4801C59.6943 23.48 59.6948 23.4808 59.6954 23.4828ZM59.7205 23.5051C59.7205 23.5052 59.7195 23.505 59.7178 23.5042C59.7198 23.5047 59.7206 23.5051 59.7205 23.5051Z" fill="#282828" stroke="#282828" stroke-width="2"/>
<path d="M24.367 58.733L28.4593 54.6441C28.4596 54.6439 28.4598 54.6436 28.4601 54.6433C28.5349 54.5694 28.6123 54.5451 28.6576 54.542C28.6598 54.5418 28.662 54.5417 28.664 54.5417C28.6639 54.5439 28.6638 54.5464 28.6636 54.549C28.6606 54.5945 28.6364 54.6711 28.5633 54.7446C28.5632 54.7448 28.563 54.745 28.5628 54.7451L24.4707 58.8355C24.4706 58.8357 24.4704 58.8358 24.4703 58.836C24.3974 58.9084 24.3213 58.9325 24.2752 58.9356C24.2717 58.9358 24.2685 58.9359 24.2657 58.936C24.2657 58.9341 24.2658 58.9322 24.266 58.9301C24.269 58.8851 24.2929 58.8081 24.367 58.733ZM28.6863 54.5434C28.6862 54.5435 28.6853 54.5433 28.6838 54.5426C28.6856 54.543 28.6863 54.5433 28.6863 54.5434ZM28.6628 54.5217C28.6621 54.5202 28.6619 54.5193 28.662 54.5192C28.6621 54.5192 28.6624 54.5199 28.6628 54.5217ZM24.2429 58.9335C24.243 58.9334 24.244 58.9336 24.2456 58.9344C24.2437 58.934 24.2429 58.9335 24.2429 58.9335ZM24.2667 58.9566C24.2674 58.9581 24.2675 58.959 24.2675 58.9591C24.2674 58.9591 24.2671 58.9584 24.2667 58.9566Z" fill="#282828" stroke="#282828" stroke-width="2"/>
<path d="M55.4971 55.0822L55.4971 55.0822L55.5014 55.0865L59.5961 59.176C59.5963 59.1762 59.5965 59.1764 59.5967 59.1766C59.6709 59.2514 59.6945 59.3278 59.6974 59.3721C59.6976 59.3749 59.6977 59.3776 59.6978 59.38C59.6949 59.38 59.6916 59.3798 59.688 59.3796C59.6445 59.3767 59.5691 59.3535 59.4951 59.2795L55.4004 55.1848C55.328 55.1125 55.3038 55.0365 55.3007 54.9907C55.3005 54.9886 55.3004 54.9867 55.3003 54.9848C55.3031 54.9849 55.3062 54.985 55.3096 54.9852C55.3535 54.988 55.4265 55.0108 55.4971 55.0822ZM59.6958 59.401C59.6958 59.4009 59.696 59.4 59.6966 59.3985C59.6963 59.4003 59.6959 59.401 59.6958 59.401ZM59.7152 59.3786C59.7168 59.3778 59.7178 59.3776 59.7179 59.3777C59.718 59.3778 59.7172 59.3782 59.7152 59.3786ZM55.3023 54.9605C55.3024 54.9605 55.3022 54.9614 55.3015 54.963C55.3019 54.9612 55.3022 54.9604 55.3023 54.9605ZM55.2796 54.9866C55.278 54.9875 55.2771 54.9877 55.277 54.9876C55.2769 54.9876 55.2777 54.9871 55.2796 54.9866Z" fill="#282828" stroke="#282828" stroke-width="2"/>
<path d="M24.2446 23.9526C24.2445 23.9526 24.2454 23.9522 24.2472 23.9517C24.2456 23.9525 24.2447 23.9527 24.2446 23.9526ZM28.4618 28.2457L24.3673 24.1546L24.2666 23.9503C24.2693 23.9504 24.2722 23.9505 24.2754 23.9507C24.3205 23.9537 24.3965 23.9775 24.4697 24.0508L28.5644 28.1455C28.6383 28.2194 28.6622 28.2958 28.6652 28.3403C28.6653 28.3428 28.6655 28.3451 28.6655 28.3472C28.6622 28.3472 28.6584 28.3471 28.6542 28.3469C28.6107 28.344 28.5369 28.3213 28.4647 28.2485L28.4618 28.2457ZM28.6637 28.3687C28.6637 28.3687 28.6638 28.3678 28.6645 28.3663C28.6641 28.368 28.6638 28.3688 28.6637 28.3687ZM28.6834 28.3455C28.685 28.3447 28.6859 28.3444 28.686 28.3445C28.686 28.3446 28.6852 28.345 28.6834 28.3455Z" fill="#282828" stroke="#282828" stroke-width="2"/>
</svg>
