<svg width="20" height="16" viewBox="0 0 20 16" fill="none" xmlns="http://www.w3.org/2000/svg">
<path d="M0.226105 7.62993L13.9762 0.546551C14.0755 0.49487 14.1902 0.485495 14.2961 0.520925C14.4018 0.555496 14.4897 0.630809 14.5394 0.730497L17.456 6.56383C17.5578 6.76726 17.4772 7.01508 17.2754 7.12008L14.0084 8.81861C14.1052 9.08467 14.1666 9.36779 14.1666 9.6669C14.1666 10.2145 13.9846 10.7173 13.6848 11.1296L14.1455 12.1669H17.9256C18.3171 11.6477 18.9323 11.3336 19.5834 11.3336C19.8136 11.3336 20 11.5199 20 11.7502V15.0836C20 15.3139 19.8136 15.5003 19.5833 15.5003C18.9323 15.5003 18.317 15.1861 17.9256 14.6669H13.3332C12.8409 14.6669 12.3925 14.376 12.1906 13.9247L11.3971 12.1397C10.6652 12.0598 10.0266 11.6726 9.62332 11.0992L6.85858 12.5368C6.79834 12.5681 6.73244 12.5836 6.6665 12.5836C6.58592 12.5836 6.50537 12.56 6.43537 12.5136L5.44771 11.8552L3.53984 12.9453C3.47472 12.9824 3.40394 13.0002 3.33312 13.0002C3.20292 13.0002 3.07515 12.9388 2.99374 12.8257L0.910406 9.90897C0.842867 9.81456 0.818453 9.69577 0.842047 9.58221C0.865641 9.46826 0.935642 9.3694 1.03572 9.30959L1.34811 9.12213L0.185284 8.34689C0.0623932 8.26509 -0.00760841 8.12431 0.000556946 7.977C0.0087986 7.8293 0.0942669 7.69747 0.226105 7.62993Z" fill="#1C5630"/>
</svg>
