<svg width="263" height="87" viewBox="0 0 263 87" fill="none" xmlns="http://www.w3.org/2000/svg">
<path fill-rule="evenodd" clip-rule="evenodd" d="M168.597 53.4245C169.228 53.4245 169.748 53.2191 170.157 52.8093C170.567 52.3835 170.772 51.8478 170.772 51.2018C170.772 50.5552 170.567 50.0195 170.157 49.6092C169.748 49.184 169.228 48.9795 168.597 48.9795C167.966 48.9795 167.446 49.184 167.02 49.6092C166.611 50.0195 166.405 50.5552 166.405 51.2018C166.405 51.8478 166.611 52.3835 167.02 52.8093C167.446 53.2191 167.966 53.4245 168.597 53.4245ZM170.772 44.1084H172.805V55.1424H170.772V54.2123C170.173 54.9847 169.322 55.3632 168.219 55.3632C167.162 55.3632 166.248 54.9693 165.492 54.1651C164.751 53.3613 164.372 52.3681 164.372 51.2018C164.372 50.035 164.751 49.0581 165.492 48.2539C166.248 47.4497 167.162 47.0403 168.219 47.0403C169.322 47.0403 170.173 47.4184 170.772 48.1908V44.1084Z" fill="#25366F"/>
<path fill-rule="evenodd" clip-rule="evenodd" d="M180.452 50.4599C180.215 49.3886 179.428 48.8679 178.497 48.8679C177.41 48.8679 176.669 49.4513 176.432 50.4599H180.452ZM176.464 52.0365C176.732 53.0298 177.473 53.5187 178.686 53.5187C179.458 53.5187 180.058 53.2506 180.452 52.7299L182.09 53.6763C181.319 54.7954 180.168 55.3629 178.655 55.3629C177.347 55.3629 176.306 54.9685 175.518 54.1807C174.73 53.3919 174.336 52.3986 174.336 51.201C174.336 50.0188 174.73 49.0255 175.502 48.2377C176.274 47.4335 177.283 47.04 178.497 47.04C179.647 47.04 180.609 47.4335 181.35 48.2377C182.107 49.0414 182.485 50.0188 182.485 51.201C182.485 51.4686 182.454 51.7376 182.406 52.0365H176.464Z" fill="#25366F"/>
<path fill-rule="evenodd" clip-rule="evenodd" d="M188.855 47.2607H191.093L188.098 55.1424H185.78L182.786 47.2607H185.024L186.931 52.778L188.855 47.2607Z" fill="#25366F"/>
<path fill-rule="evenodd" clip-rule="evenodd" d="M197.54 50.4599C197.304 49.3886 196.516 48.8679 195.586 48.8679C194.498 48.8679 193.757 49.4513 193.521 50.4599H197.54ZM193.552 52.0365C193.82 53.0298 194.561 53.5187 195.775 53.5187C196.547 53.5187 197.146 53.2506 197.54 52.7299L199.179 53.6763C198.407 54.7954 197.257 55.3629 195.743 55.3629C194.435 55.3629 193.395 54.9685 192.606 54.1807C191.819 53.3919 191.424 52.3986 191.424 51.201C191.424 50.0188 191.819 49.0255 192.591 48.2377C193.363 47.4335 194.372 47.04 195.586 47.04C196.736 47.04 197.698 47.4335 198.439 48.2377C199.196 49.0414 199.573 50.0188 199.573 51.201C199.573 51.4686 199.542 51.7376 199.495 52.0365H193.552Z" fill="#25366F"/>
<path fill-rule="evenodd" clip-rule="evenodd" d="M201.073 55.1417H203.106V43.6348H201.073V55.1417Z" fill="#25366F"/>
<path fill-rule="evenodd" clip-rule="evenodd" d="M208.797 53.3764C209.411 53.3764 209.915 53.172 210.326 52.7622C210.735 52.3519 210.94 51.8321 210.94 51.201C210.94 50.5708 210.735 50.0501 210.326 49.6408C209.915 49.2309 209.411 49.026 208.797 49.026C208.181 49.026 207.677 49.2309 207.268 49.6408C206.873 50.0501 206.668 50.5708 206.668 51.201C206.668 51.8321 206.873 52.3519 207.268 52.7622C207.677 53.172 208.181 53.3764 208.797 53.3764ZM208.797 55.3629C207.63 55.3629 206.637 54.9685 205.833 54.1643C205.029 53.361 204.635 52.3678 204.635 51.201C204.635 50.0347 205.029 49.0578 205.833 48.2536C206.637 47.4494 207.63 47.04 208.797 47.04C209.963 47.04 210.956 47.4494 211.76 48.2536C212.563 49.0578 212.973 50.0347 212.973 51.201C212.973 52.3678 212.563 53.361 211.76 54.1643C210.956 54.9685 209.963 55.3629 208.797 55.3629Z" fill="#25366F"/>
<path fill-rule="evenodd" clip-rule="evenodd" d="M218.697 53.4242C219.328 53.4242 219.848 53.2188 220.258 52.8089C220.683 52.3832 220.888 51.8475 220.888 51.2015C220.888 50.5549 220.683 50.0192 220.258 49.6089C219.848 49.1837 219.328 48.9792 218.697 48.9792C218.067 48.9792 217.546 49.1837 217.137 49.6089C216.727 50.0192 216.522 50.5549 216.522 51.2015C216.522 51.8475 216.727 52.3832 217.137 52.8089C217.546 53.2188 218.067 53.4242 218.697 53.4242ZM221.787 48.2536C222.544 49.0578 222.922 50.0347 222.922 51.2015C222.922 52.3678 222.544 53.361 221.787 54.1648C221.046 54.969 220.131 55.3629 219.075 55.3629C217.972 55.3629 217.12 54.9844 216.522 54.212V58.2953H214.488V47.2604H216.522V48.1904C217.12 47.418 217.972 47.04 219.075 47.04C220.131 47.04 221.046 47.4494 221.787 48.2536Z" fill="#25366F"/>
<path fill-rule="evenodd" clip-rule="evenodd" d="M236.131 50.2868V55.1421H234.098V50.4291C234.098 49.4831 233.609 48.931 232.773 48.931C231.843 48.931 231.308 49.5622 231.308 50.7126V55.1421H229.275V50.4291C229.275 49.4831 228.786 48.931 227.95 48.931C227.052 48.931 226.468 49.5622 226.468 50.7126V55.1421H224.435V47.2604H226.468V48.0959C226.941 47.3867 227.666 47.04 228.66 47.04C229.621 47.04 230.346 47.418 230.804 48.1745C231.323 47.418 232.111 47.04 233.152 47.04C234.965 47.04 236.131 48.3168 236.131 50.2868Z" fill="#25366F"/>
<path fill-rule="evenodd" clip-rule="evenodd" d="M243.652 50.4599C243.415 49.3886 242.628 48.8679 241.698 48.8679C240.61 48.8679 239.869 49.4513 239.633 50.4599H243.652ZM239.664 52.0365C239.932 53.0298 240.672 53.5187 241.887 53.5187C242.658 53.5187 243.258 53.2506 243.652 52.7299L245.291 53.6763C244.519 54.7954 243.369 55.3629 241.855 55.3629C240.547 55.3629 239.507 54.9685 238.718 54.1807C237.93 53.3919 237.536 52.3986 237.536 51.201C237.536 50.0188 237.93 49.0255 238.702 48.2377C239.475 47.4335 240.484 47.04 241.698 47.04C242.847 47.04 243.81 47.4335 244.55 48.2377C245.307 49.0414 245.685 50.0188 245.685 51.201C245.685 51.4686 245.654 51.7376 245.606 52.0365H239.664Z" fill="#25366F"/>
<path fill-rule="evenodd" clip-rule="evenodd" d="M253.693 47.9069C254.261 48.4899 254.545 49.2782 254.545 50.3023V55.1421H252.511V50.5549C252.511 49.499 251.896 48.9315 250.951 48.9315C249.895 48.9315 249.217 49.5781 249.217 50.8857V55.1421H247.183V47.2604H249.217V48.1437C249.706 47.4026 250.493 47.04 251.566 47.04C252.433 47.04 253.142 47.3235 253.693 47.9069Z" fill="#25366F"/>
<path fill-rule="evenodd" clip-rule="evenodd" d="M260.867 49.2156H259.086V52.4933C259.086 53.3452 259.701 53.3611 260.867 53.2975V55.1422C258.077 55.4575 257.052 54.6533 257.052 52.4933V49.2156H255.681V47.2605H257.052V45.6685L259.086 45.0537V47.2605H260.867V49.2156Z" fill="#25366F"/>
<path fill-rule="evenodd" clip-rule="evenodd" d="M164.798 69.3842H166.831V61.5025H164.798V69.3842ZM164.562 59.3116C164.562 58.6337 165.129 58.0503 165.807 58.0503C166.5 58.0503 167.068 58.6337 167.068 59.3116C167.068 59.989 166.5 60.557 165.807 60.557C165.129 60.557 164.562 59.989 164.562 59.3116Z" fill="#25366F"/>
<path fill-rule="evenodd" clip-rule="evenodd" d="M175.281 62.1486C175.848 62.732 176.132 63.5199 176.132 64.5444V69.3838H174.098V64.7961C174.098 63.7407 173.483 63.1732 172.538 63.1732C171.481 63.1732 170.804 63.8198 170.804 65.1278V69.3838H168.771V61.5021H170.804V62.3854C171.293 61.6443 172.08 61.2822 173.153 61.2822C174.019 61.2822 174.729 61.5657 175.281 62.1486Z" fill="#25366F"/>
<path fill-rule="evenodd" clip-rule="evenodd" d="M182.99 61.5024H185.228L182.234 69.3841H179.916L176.922 61.5024H179.16L181.067 67.0197L182.99 61.5024Z" fill="#25366F"/>
<path fill-rule="evenodd" clip-rule="evenodd" d="M191.676 64.7021C191.44 63.6308 190.652 63.1096 189.722 63.1096C188.634 63.1096 187.893 63.693 187.657 64.7021H191.676ZM187.688 66.2787C187.957 67.2715 188.697 67.7609 189.911 67.7609C190.683 67.7609 191.282 67.4928 191.676 66.9721L193.315 67.9185C192.543 69.0371 191.393 69.6051 189.879 69.6051C188.571 69.6051 187.531 69.2107 186.743 68.4229C185.955 67.6341 185.56 66.6408 185.56 65.4432C185.56 64.2609 185.955 63.2672 186.727 62.4799C187.499 61.6757 188.508 61.2822 189.722 61.2822C190.872 61.2822 191.834 61.6757 192.575 62.4799C193.332 63.2836 193.71 64.2609 193.71 65.4432C193.71 65.7108 193.678 65.9793 193.631 66.2787H187.688Z" fill="#25366F"/>
<path fill-rule="evenodd" clip-rule="evenodd" d="M198.203 64.6076C199.355 64.8443 200.852 65.3964 200.836 67.083C200.836 67.8867 200.536 68.5169 199.922 68.958C199.323 69.3838 198.566 69.6051 197.668 69.6051C196.044 69.6051 194.941 68.9744 194.358 67.729L196.123 66.7353C196.36 67.4137 196.864 67.7609 197.668 67.7609C198.393 67.7609 198.756 67.5395 198.756 67.083C198.756 66.6572 198.125 66.421 197.321 66.2156C196.155 65.9166 194.689 65.4273 194.689 63.7879C194.689 63.0155 194.972 62.4013 195.54 61.9601C196.123 61.5026 196.832 61.2822 197.683 61.2822C198.96 61.2822 200.064 61.8811 200.679 62.9529L198.944 63.8984C198.692 63.3622 198.267 63.0941 197.683 63.0941C197.163 63.0941 196.769 63.3468 196.769 63.7407C196.769 64.1664 197.4 64.4032 198.203 64.6076Z" fill="#25366F"/>
<path fill-rule="evenodd" clip-rule="evenodd" d="M206.496 63.4578H204.715V66.7355C204.715 67.5869 205.329 67.6033 206.496 67.5397V69.3839C203.706 69.6992 202.681 68.895 202.681 66.7355V63.4578H201.309V61.5022H202.681V59.9102L204.715 59.2959V61.5022H206.496V63.4578Z" fill="#25366F"/>
<path fill-rule="evenodd" clip-rule="evenodd" d="M219.832 64.529V69.3838H217.798V64.6713C217.798 63.7253 217.309 63.1732 216.474 63.1732C215.544 63.1732 215.008 63.8043 215.008 64.9543V69.3838H212.975V64.6713C212.975 63.7253 212.487 63.1732 211.65 63.1732C210.752 63.1732 210.169 63.8043 210.169 64.9543V69.3838H208.135V61.5026H210.169V62.3377C210.642 61.6289 211.367 61.2822 212.36 61.2822C213.322 61.2822 214.046 61.6602 214.504 62.4167C215.024 61.6602 215.811 61.2822 216.852 61.2822C218.665 61.2822 219.832 62.559 219.832 64.529Z" fill="#25366F"/>
<path fill-rule="evenodd" clip-rule="evenodd" d="M227.352 64.7021C227.115 63.6308 226.327 63.1096 225.397 63.1096C224.309 63.1096 223.568 63.693 223.332 64.7021H227.352ZM223.363 66.2787C223.632 67.2715 224.372 67.7609 225.586 67.7609C226.358 67.7609 226.958 67.4928 227.352 66.9721L228.99 67.9185C228.218 69.0371 227.068 69.6051 225.555 69.6051C224.246 69.6051 223.206 69.2107 222.418 68.4229C221.63 67.6341 221.235 66.6408 221.235 65.4432C221.235 64.2609 221.63 63.2672 222.402 62.4799C223.174 61.6757 224.183 61.2822 225.397 61.2822C226.547 61.2822 227.509 61.6757 228.25 62.4799C229.007 63.2836 229.385 64.2609 229.385 65.4432C229.385 65.7108 229.353 65.9793 229.306 66.2787H223.363Z" fill="#25366F"/>
<path fill-rule="evenodd" clip-rule="evenodd" d="M237.395 62.1486C237.962 62.732 238.246 63.5199 238.246 64.5444V69.3838H236.211V64.7961C236.211 63.7407 235.597 63.1732 234.652 63.1732C233.595 63.1732 232.917 63.8198 232.917 65.1278V69.3838H230.884V61.5021H232.917V62.3854C233.406 61.6443 234.194 61.2822 235.266 61.2822C236.133 61.2822 236.842 61.5657 237.395 62.1486Z" fill="#25366F"/>
<path fill-rule="evenodd" clip-rule="evenodd" d="M244.567 63.4578H242.786V66.7355C242.786 67.5869 243.401 67.6033 244.567 67.5397V69.3839C241.776 69.6992 240.752 68.895 240.752 66.7355V63.4578H239.381V61.5022H240.752V59.9102L242.786 59.2959V61.5022H244.567V63.4578Z" fill="#25366F"/>
<path fill-rule="evenodd" clip-rule="evenodd" d="M176.494 78.7717V83.6264H174.461V78.9134C174.461 77.968 173.972 77.4159 173.136 77.4159C172.206 77.4159 171.671 78.047 171.671 79.1969V83.6264H169.637V78.9134C169.637 77.968 169.149 77.4159 168.313 77.4159C167.414 77.4159 166.831 78.047 166.831 79.1969V83.6264H164.798V75.7452H166.831V76.5803C167.304 75.8716 168.029 75.5249 169.022 75.5249C169.984 75.5249 170.709 75.9029 171.166 76.6594C171.686 75.9029 172.474 75.5249 173.515 75.5249C175.328 75.5249 176.494 76.8016 176.494 78.7717Z" fill="#25366F"/>
<path fill-rule="evenodd" clip-rule="evenodd" d="M182.106 81.909C182.738 81.909 183.258 81.7036 183.667 81.2938C184.093 80.8681 184.298 80.3324 184.298 79.6863C184.298 79.0393 184.093 78.5041 183.667 78.0938C183.258 77.6681 182.738 77.4636 182.106 77.4636C181.476 77.4636 180.956 77.6681 180.547 78.0938C180.136 78.5041 179.931 79.0393 179.931 79.6863C179.931 80.3324 180.136 80.8681 180.547 81.2938C180.956 81.7036 181.476 81.909 182.106 81.909ZM184.298 75.7452H186.331V83.6269H184.298V82.6969C183.683 83.4688 182.832 83.8478 181.729 83.8478C180.672 83.8478 179.773 83.4534 179.018 82.6491C178.277 81.8454 177.898 80.8526 177.898 79.6863C177.898 78.5195 178.277 77.5422 179.018 76.738C179.773 75.9347 180.672 75.5249 181.729 75.5249C182.832 75.5249 183.683 75.9029 184.298 76.6753V75.7452Z" fill="#25366F"/>
<path fill-rule="evenodd" clip-rule="evenodd" d="M194.766 76.3913C195.333 76.9747 195.617 77.7625 195.617 78.7871V83.6264H193.583V79.0388C193.583 77.9834 192.968 77.4159 192.023 77.4159C190.967 77.4159 190.289 78.0624 190.289 79.3705V83.6264H188.255V75.7448H190.289V76.6281C190.778 75.887 191.565 75.5244 192.637 75.5244C193.504 75.5244 194.214 75.8079 194.766 76.3913Z" fill="#25366F"/>
<path fill-rule="evenodd" clip-rule="evenodd" d="M201.229 81.909C201.86 81.909 202.38 81.7036 202.79 81.2938C203.215 80.8681 203.42 80.3324 203.42 79.6863C203.42 79.0393 203.215 78.5041 202.79 78.0938C202.38 77.6681 201.86 77.4636 201.229 77.4636C200.599 77.4636 200.079 77.6681 199.669 78.0938C199.259 78.5041 199.053 79.0393 199.053 79.6863C199.053 80.3324 199.259 80.8681 199.669 81.2938C200.079 81.7036 200.599 81.909 201.229 81.909ZM203.42 75.7452H205.454V83.6269H203.42V82.6969C202.805 83.4688 201.954 83.8478 200.851 83.8478C199.794 83.8478 198.897 83.4534 198.139 82.6491C197.399 81.8454 197.02 80.8526 197.02 79.6863C197.02 78.5195 197.399 77.5422 198.139 76.738C198.897 75.9347 199.794 75.5249 200.851 75.5249C201.954 75.5249 202.805 75.9029 203.42 76.6753V75.7452Z" fill="#25366F"/>
<path fill-rule="evenodd" clip-rule="evenodd" d="M212.785 78.0306C212.374 77.6213 211.854 77.4164 211.209 77.4164C210.562 77.4164 210.043 77.6213 209.617 78.0306C209.207 78.4245 209.001 78.9448 209.001 79.5605C209.001 80.8213 209.931 81.7191 211.209 81.7191C212.486 81.7191 213.416 80.8213 213.416 79.5605C213.416 78.9448 213.21 78.4245 212.785 78.0306ZM213.416 75.7452H215.401V83.248C215.401 84.4625 214.992 85.3926 214.188 86.0386C213.383 86.6842 212.422 87 211.288 87C209.585 87 208.245 86.3376 207.551 85.0768L209.286 84.0835C209.68 84.8246 210.373 85.1876 211.35 85.1876C212.628 85.1876 213.416 84.4934 213.416 83.248V82.397C212.816 83.2012 211.981 83.5956 210.894 83.5956C209.775 83.5956 208.843 83.2012 208.088 82.4288C207.347 81.64 206.968 80.6791 206.968 79.5605C206.968 78.4405 207.347 77.495 208.103 76.7071C208.86 75.9183 209.79 75.5249 210.894 75.5249C211.981 75.5249 212.816 75.9183 213.416 76.7226V75.7452Z" fill="#25366F"/>
<path fill-rule="evenodd" clip-rule="evenodd" d="M223.032 78.9448C222.796 77.8734 222.007 77.3522 221.077 77.3522C219.99 77.3522 219.249 77.9356 219.012 78.9448H223.032ZM219.044 80.5214C219.312 81.5141 220.052 82.0031 221.267 82.0031C222.039 82.0031 222.638 81.7345 223.032 81.2147L224.671 82.1607C223.899 83.2798 222.748 83.8473 221.235 83.8473C219.927 83.8473 218.886 83.4534 218.098 82.6655C217.31 81.8767 216.915 80.8835 216.915 79.6858C216.915 78.5036 217.31 77.5099 218.082 76.7226C218.855 75.9183 219.864 75.5244 221.077 75.5244C222.228 75.5244 223.19 75.9183 223.931 76.7226C224.688 77.5263 225.065 78.5036 225.065 79.6858C225.065 79.9534 225.034 80.221 224.987 80.5214H219.044Z" fill="#25366F"/>
<path fill-rule="evenodd" clip-rule="evenodd" d="M238.26 78.7717V83.6264H236.226V78.9134C236.226 77.968 235.738 77.4159 234.902 77.4159C233.972 77.4159 233.437 78.047 233.437 79.1969V83.6264H231.403V78.9134C231.403 77.968 230.915 77.4159 230.079 77.4159C229.18 77.4159 228.597 78.047 228.597 79.1969V83.6264H226.564V75.7452H228.597V76.5803C229.07 75.8716 229.795 75.5249 230.788 75.5249C231.75 75.5249 232.474 75.9029 232.932 76.6594C233.452 75.9029 234.24 75.5249 235.281 75.5249C237.093 75.5249 238.26 76.8016 238.26 78.7717Z" fill="#25366F"/>
<path fill-rule="evenodd" clip-rule="evenodd" d="M245.78 78.9448C245.543 77.8734 244.756 77.3522 243.825 77.3522C242.738 77.3522 241.997 77.9356 241.76 78.9448H245.78ZM241.792 80.5214C242.06 81.5141 242.8 82.0031 244.014 82.0031C244.786 82.0031 245.386 81.7345 245.78 81.2147L247.418 82.1607C246.647 83.2798 245.497 83.8473 243.983 83.8473C242.675 83.8473 241.634 83.4534 240.846 82.6655C240.058 81.8767 239.664 80.8835 239.664 79.6858C239.664 78.5036 240.058 77.5099 240.83 76.7226C241.602 75.9183 242.611 75.5244 243.825 75.5244C244.975 75.5244 245.938 75.9183 246.678 76.7226C247.435 77.5263 247.813 78.5036 247.813 79.6858C247.813 79.9534 247.782 80.221 247.734 80.5214H241.792Z" fill="#25366F"/>
<path fill-rule="evenodd" clip-rule="evenodd" d="M255.822 76.3913C256.389 76.9747 256.674 77.7625 256.674 78.7871V83.6264H254.639V79.0388C254.639 77.9834 254.025 77.4159 253.08 77.4159C252.023 77.4159 251.345 78.0624 251.345 79.3705V83.6264H249.312V75.7448H251.345V76.6281C251.834 75.887 252.622 75.5244 253.694 75.5244C254.561 75.5244 255.27 75.8079 255.822 76.3913Z" fill="#25366F"/>
<path fill-rule="evenodd" clip-rule="evenodd" d="M262.996 77.6995H261.214V80.9791C261.214 81.8296 261.829 81.8455 262.996 81.7823V83.6266C260.205 83.9419 259.18 83.1377 259.18 80.9791V77.6995H257.809V75.7449H259.18V74.1533L261.214 73.5381V75.7449H262.996V77.6995Z" fill="#25366F"/>
<path fill-rule="evenodd" clip-rule="evenodd" d="M147.543 43.9083V83.7309H126.755V52.6926L116.197 41.7753L105.659 52.64L105.637 83.7333H84.8494V52.64C84.8494 46.5061 80.0689 41.7801 74.326 41.7724V41.7261H63.4984V21.1808H42.7602V41.7261H31.3207C25.5089 41.7261 20.7376 46.3143 20.7376 52.1256C20.7376 57.9374 25.5089 62.7088 31.3207 62.7088H42.7602V41.7261H63.4984V83.7492L31.3207 83.7131C14.0087 83.7131 -0.00012207 69.4381 -0.00012207 52.1256C-0.00012207 34.8748 14.0087 21.0415 31.3207 21.0415L42.5129 21.041V0.115723H63.7539V21.041L74.313 21.0362C83.4941 21.0362 91.6853 25.0259 97.4233 31.3358L116.197 12.5648L147.543 43.9083Z" fill="#25366F"/>
</svg>
