<svg width="65" height="64" viewBox="0 0 65 64" fill="none" xmlns="http://www.w3.org/2000/svg">
<path d="M42.6355 35.2161L39.3322 7.5815C39.2286 6.55213 38.3582 5.77588 37.3075 5.77588H19.8594C18.8139 5.77588 17.944 6.54788 17.8366 7.56313L14.3664 35.2145C14.3068 35.7779 14.4934 36.3424 14.8787 36.7633C15.264 37.184 15.8149 37.4254 16.3902 37.4254H22.3338V42.6214C21.5631 42.8214 20.9923 43.5115 20.9923 44.3323C20.9923 45.2758 21.7455 46.0493 22.691 46.1004C22.724 46.1022 22.7573 46.1031 22.7908 46.1031C23.7826 46.1031 24.5894 45.3088 24.5894 44.3323C24.5894 43.5116 24.0185 42.8214 23.2479 42.6214V37.4254H26.8502V51.2391H18.1525C17.2841 51.2391 16.5776 51.9346 16.5776 52.7898V56.6736C16.5776 57.5286 17.284 58.2241 18.1525 58.2241H38.8405C39.709 58.2241 40.4155 57.5286 40.4155 56.6736V52.7898C40.4155 51.9346 39.709 51.2391 38.8405 51.2391H30.1416V37.4254H40.6116C41.1851 37.4254 41.7348 37.1854 42.1197 36.7668C42.5048 36.3484 42.693 35.786 42.6355 35.2161ZM23.6753 44.3321C23.6753 44.8124 23.2786 45.2031 22.7908 45.2031C22.3031 45.2031 21.9064 44.8124 21.9064 44.3321C21.9064 44.0061 22.0894 43.7216 22.3596 43.5725H23.2221C23.4921 43.7216 23.6753 44.0061 23.6753 44.3321ZM38.8405 52.139C39.205 52.139 39.5014 52.4309 39.5014 52.7896V56.6735C39.5014 57.0321 39.205 57.3241 38.8405 57.3241H18.1525C17.7881 57.3241 17.4917 57.0321 17.4917 56.6735V52.7896C17.4917 52.4309 17.7881 52.139 18.1525 52.139H38.8405ZM27.7642 51.239V37.4253H29.2275V51.239H27.7642ZM41.4422 36.1626C41.2271 36.3965 40.9321 36.5253 40.6116 36.5253H16.3901C16.0685 36.5253 15.7729 36.3958 15.5577 36.1606C15.3424 35.9254 15.2422 35.6225 15.2746 35.3161L18.7448 7.66488C18.8045 7.101 19.2836 6.67575 19.8594 6.67575H37.3075C37.8862 6.67575 38.3656 7.10325 38.4236 7.67838L41.7268 35.313C41.7584 35.627 41.6573 35.9288 41.4422 36.1626Z" fill="#282828"/>
<path d="M22.3338 37.4254H16.3902C15.8149 37.4254 15.264 37.184 14.8787 36.7633C14.4934 36.3424 14.3068 35.7779 14.3664 35.2145L17.8366 7.56313C17.944 6.54788 18.8139 5.77588 19.8594 5.77588H37.3075C38.3582 5.77588 39.2286 6.55213 39.3322 7.5815L42.6355 35.2161C42.693 35.786 42.5048 36.3484 42.1197 36.7668C41.7348 37.1854 41.1851 37.4254 40.6116 37.4254H30.1416V51.2391H38.8405C39.709 51.2391 40.4155 51.9346 40.4155 52.7898V56.6736C40.4155 57.5286 39.709 58.2241 38.8405 58.2241H18.1525C17.284 58.2241 16.5776 57.5286 16.5776 56.6736V52.7898C16.5776 51.9346 17.2841 51.2391 18.1525 51.2391H26.8502V37.4254H23.2479M22.3338 37.4254V42.6214M22.3338 37.4254H23.2479M22.3338 42.6214C21.5631 42.8214 20.9923 43.5115 20.9923 44.3323C20.9923 45.2758 21.7455 46.0493 22.691 46.1004M22.3338 42.6214H23.2479M24.5894 44.3323C24.5894 45.3088 23.7826 46.1031 22.7908 46.1031C22.7573 46.1031 22.724 46.1022 22.691 46.1004M24.5894 44.3323C24.5894 43.5116 24.0185 42.8214 23.2479 42.6214M24.5894 44.3323L22.691 46.1004M23.2479 42.6214V37.4254M23.6753 44.3321C23.6753 44.8124 23.2786 45.2031 22.7908 45.2031C22.3031 45.2031 21.9064 44.8124 21.9064 44.3321C21.9064 44.0061 22.0894 43.7216 22.3596 43.5725H23.2221C23.4921 43.7216 23.6753 44.0061 23.6753 44.3321ZM38.8405 52.139C39.205 52.139 39.5014 52.4309 39.5014 52.7896V56.6735C39.5014 57.0321 39.205 57.3241 38.8405 57.3241H18.1525C17.7881 57.3241 17.4917 57.0321 17.4917 56.6735V52.7896C17.4917 52.4309 17.7881 52.139 18.1525 52.139H38.8405ZM27.7642 51.239V37.4253H29.2275V51.239H27.7642ZM41.4422 36.1626C41.2271 36.3965 40.9321 36.5253 40.6116 36.5253H16.3901C16.0685 36.5253 15.7729 36.3958 15.5577 36.1606C15.3424 35.9254 15.2422 35.6225 15.2746 35.3161L18.7448 7.66488C18.8045 7.101 19.2836 6.67575 19.8594 6.67575H37.3075C37.8862 6.67575 38.3656 7.10325 38.4236 7.67838L41.7268 35.313C41.7584 35.627 41.6573 35.9288 41.4422 36.1626Z" stroke="black"/>
</svg>
