<svg width="20" height="14" viewBox="0 0 20 14" fill="none" xmlns="http://www.w3.org/2000/svg">
<path d="M19.4063 12.7104C19.4166 12.6787 19.4236 12.6451 19.4236 12.6098V0.96287C19.4236 0.927355 19.4166 0.893594 19.4061 0.861587C19.4045 0.857202 19.4036 0.852817 19.4019 0.848433C19.3879 0.810945 19.3673 0.777184 19.3414 0.747588C19.3396 0.745615 19.3394 0.743203 19.3377 0.74123C19.3366 0.740134 19.3352 0.739696 19.3342 0.738599C19.3065 0.709223 19.2739 0.685546 19.2373 0.667789C19.2344 0.666473 19.2322 0.664719 19.2294 0.663404C19.1947 0.647839 19.157 0.63907 19.1173 0.636439C19.1134 0.63622 19.1097 0.635343 19.1057 0.635343C19.102 0.635124 19.0987 0.634247 19.095 0.634247H0.854446C0.850719 0.634247 0.847211 0.635124 0.843485 0.635343C0.839977 0.635562 0.836469 0.63622 0.832962 0.636439C0.792844 0.63907 0.75448 0.648058 0.719404 0.663843C0.717212 0.66472 0.715458 0.666254 0.713266 0.667131C0.675997 0.684888 0.642895 0.709004 0.615053 0.738819C0.613957 0.739915 0.612642 0.740134 0.611546 0.74123C0.609792 0.742984 0.609573 0.745396 0.607819 0.747369C0.58195 0.776965 0.561124 0.810945 0.547094 0.848433C0.54534 0.852817 0.544463 0.857202 0.542929 0.861806C0.532406 0.893813 0.525391 0.927574 0.525391 0.963089V12.6103C0.525391 12.6462 0.532625 12.6804 0.543367 12.7129C0.544902 12.7172 0.545778 12.7214 0.547313 12.7258C0.561563 12.7635 0.582608 12.7975 0.608696 12.8271C0.61023 12.8288 0.610669 12.831 0.612203 12.8328C0.613519 12.8343 0.615272 12.8352 0.616807 12.8367C0.627549 12.8479 0.639387 12.8578 0.651664 12.8674C0.657144 12.8716 0.661967 12.8766 0.667667 12.8806C0.682136 12.8906 0.697701 12.8988 0.713704 12.9062C0.71765 12.908 0.721158 12.9108 0.725104 12.9123C0.764783 12.9292 0.808409 12.9389 0.854226 12.9389H19.0945C19.1404 12.9389 19.184 12.9294 19.2237 12.9123C19.2298 12.9097 19.2355 12.9058 19.2414 12.9027C19.255 12.8959 19.2686 12.8889 19.2811 12.8803C19.2877 12.8757 19.2936 12.8698 19.3 12.8648C19.3111 12.8558 19.3221 12.8468 19.3317 12.8365C19.3335 12.8347 19.3355 12.8334 19.3372 12.8317C19.339 12.8297 19.3394 12.8271 19.3412 12.8251C19.3668 12.7957 19.3874 12.762 19.4015 12.7247C19.4036 12.7199 19.4047 12.7153 19.4063 12.7104ZM1.18328 1.70869L6.71803 6.76431L1.18328 11.8603V1.70869ZM12.5272 6.51658C12.5044 6.53149 12.4803 6.54399 12.4613 6.56503C12.454 6.57292 12.4516 6.58323 12.4453 6.59156L9.9746 8.84829L1.70197 1.29171H18.2472L12.5272 6.51658ZM7.20558 7.20956L9.75275 9.53623C9.81566 9.59367 9.89502 9.62239 9.9746 9.62239C10.0542 9.62239 10.1335 9.59367 10.1962 9.53623L12.7118 7.2385L18.2457 12.2812H1.69714L7.20558 7.20956ZM13.1996 6.79303L18.7659 1.70869V11.8655L13.1996 6.79303Z" fill="#1C5630" stroke="#1C5630"/>
</svg>
