<svg width="18" height="22" viewBox="0 0 18 22" fill="none" xmlns="http://www.w3.org/2000/svg">
<path d="M8.4267 1.83333C12.1662 1.83333 10.8 7.33333 10.8 7.33333C10.8 7.33333 16.2 5.82083 16.2 9.58558V20.1667H1.8V1.83333H8.4267ZM9.1701 0H0V22H18V8.81283C18 6.62108 12.0168 0 9.1701 0ZM13.5 11.9167H11.1348V15.2955H11.9511V13.9462H13.2921V13.2752H11.9511V12.6353H13.5V11.9167ZM9.09 11.9167H7.6509V15.2955H9.09C9.5733 15.2955 9.9549 15.1296 10.2258 14.8051C10.7253 14.2019 10.7541 12.9406 10.17 12.3374C9.9018 12.0624 9.5292 11.9167 9.09 11.9167ZM8.4672 12.6344H8.9136C9.3393 12.6344 9.6354 12.793 9.7371 13.2248C9.7947 13.4695 9.8064 13.8472 9.7182 14.0938C9.603 14.4155 9.3753 14.5778 9.0396 14.5778H8.4663V12.6344H8.4672ZM6.0012 11.9167H4.5V15.2955H5.3163V14.1249H6.0012C6.5583 14.1249 6.9588 13.871 7.1028 13.4255C7.1883 13.1588 7.1883 12.8783 7.1028 12.6143C6.9588 12.1706 6.5574 11.9167 6.0012 11.9167ZM5.3163 12.5877H5.8077C6.0192 12.5877 6.228 12.6133 6.3261 12.7967C6.3864 12.9094 6.3864 13.1322 6.3261 13.2449C6.228 13.4273 6.0192 13.453 5.8077 13.453H5.3163V12.5877Z" fill="#1C5630"/>
</svg>
