<svg width="20" height="20" viewBox="0 0 20 20" fill="none" xmlns="http://www.w3.org/2000/svg">
<path d="M13.3333 15H6.66667V14.1667H13.3333V15ZM11.6667 15.8333H6.66667V16.6667H11.6667V15.8333ZM20 4.16667V15H16.6667V20H3.33333V15H0V4.16667H3.33333V0H16.6667V4.16667H20ZM5 4.16667H15V1.66667H5V4.16667ZM15 12.5H5V18.3333H15V12.5ZM18.3333 5.83333H1.66667V13.3333H3.33333V10.8333H16.6667V13.3333H18.3333V5.83333ZM17.0833 6.66667C16.8533 6.66667 16.6667 6.85333 16.6667 7.08333C16.6667 7.31333 16.8533 7.5 17.0833 7.5C17.3133 7.5 17.5 7.31333 17.5 7.08333C17.5 6.85333 17.3133 6.66667 17.0833 6.66667Z" fill="#1C5630"/>
</svg>
