<svg width="52" height="50" viewBox="0 0 52 50" fill="none" xmlns="http://www.w3.org/2000/svg">
<path d="M4.81526 19.151L1.54492 22.4214L8.90318 29.7796L12.1735 26.5093L4.81526 19.151Z" stroke="#1A1A1A" stroke-width="2" stroke-miterlimit="10" stroke-linecap="round" stroke-linejoin="round"/>
<path d="M11.3496 17.5681L7.26172 21.656L10.5321 24.9263L14.62 20.8384L11.3496 17.5681Z" stroke="#1A1A1A" stroke-width="2" stroke-miterlimit="10" stroke-linecap="round" stroke-linejoin="round"/>
<path d="M16.9922 6.86322L8.81641 15.0391L16.9922 23.2149L25.1681 15.0391L16.9922 6.86322Z" stroke="#1A1A1A" stroke-width="2" stroke-miterlimit="10" stroke-linecap="round" stroke-linejoin="round"/>
<path d="M17.0273 6.91558L20.2648 3.67808C23.3867 0.556201 28.5898 0.556201 31.7117 3.67808C28.5898 3.67808 25.5836 4.94995 23.3867 7.14683L20.2648 10.2687" stroke="#1A1A1A" stroke-width="2" stroke-miterlimit="10" stroke-linecap="round" stroke-linejoin="round"/>
<path d="M23.6145 16.6744L18.709 21.58L44.8717 47.7427L49.7772 42.8371L23.6145 16.6744Z" stroke="#1A1A1A" stroke-width="2" stroke-miterlimit="10" stroke-linecap="round" stroke-linejoin="round"/>
</svg>
