<svg width="60" height="9" viewBox="0 0 60 9" fill="none" xmlns="http://www.w3.org/2000/svg">
<path d="M59.958 0.2146H58.2714L56.0826 4.01023L53.8809 0.2146H52.1943L55.3358 5.38155V8.78539H56.8165V5.38155L59.958 0.2146Z" fill="#282828"/>
<path fill-rule="evenodd" clip-rule="evenodd" d="M51.1159 8.78539H49.4936L47.5881 5.66316H45.8371V8.78539H44.3564V4.40204H47.9615C48.7469 4.40204 49.3777 3.76535 49.3777 2.96949C49.3777 2.16139 48.7469 1.53695 47.9615 1.53695H44.3564V0.2146H47.9615C49.5709 0.2146 50.8584 1.439 50.8584 2.96949C50.8584 4.07145 50.1245 5.05097 49.0688 5.45502L51.1159 8.78539Z" fill="#282828"/>
<path d="M37.9796 5.12443V7.43852H41.971V8.78539H36.499V0.2146H41.9066V1.56144H37.9796V3.78984H41.5847V5.12443H37.9796Z" fill="#282828"/>
<path d="M31.0631 8.94453C32.9429 8.94453 34.2562 7.98951 34.2562 6.4223C34.2562 4.72039 32.7498 4.27961 31.2562 3.82658C29.943 3.43477 29.4408 3.15316 29.4408 2.49198C29.4408 1.84306 29.9945 1.42676 30.8571 1.42676C31.8614 1.42676 32.4279 1.941 32.7498 2.62667L33.9987 1.941C33.4322 0.802318 32.3378 0.0554352 30.8571 0.0554352C29.3378 0.0554352 27.9602 0.949248 27.9602 2.52872C27.9602 4.14492 29.325 4.63468 30.7284 5.03873C32.0674 5.43054 32.7756 5.68766 32.7756 6.44681C32.7756 7.07125 32.2734 7.57321 31.1018 7.57321C29.8786 7.57321 29.1833 6.99779 28.8614 6.12844L27.5868 6.83859C28.0632 8.112 29.2863 8.94453 31.0631 8.94453Z" fill="#282828"/>
<path d="M22.8536 8.94453C24.7334 8.94453 26.0467 7.98951 26.0467 6.4223C26.0467 4.72039 24.5403 4.27961 23.0468 3.82658C21.7334 3.43477 21.2313 3.15316 21.2313 2.49198C21.2313 1.84306 21.785 1.42676 22.6476 1.42676C23.6518 1.42676 24.2184 1.941 24.5403 2.62667L25.7892 1.941C25.2227 0.802318 24.1282 0.0554352 22.6476 0.0554352C21.1283 0.0554352 19.7506 0.949248 19.7506 2.52872C19.7506 4.14492 21.1155 4.63468 22.5189 5.03873C23.8579 5.43054 24.566 5.68766 24.566 6.44681C24.566 7.07125 24.0639 7.57321 22.8922 7.57321C21.6691 7.57321 20.9738 6.99779 20.6519 6.12844L19.3773 6.83859C19.8536 8.112 21.0768 8.94453 22.8536 8.94453Z" fill="#282828"/>
<path d="M13.1388 8.94453C15.7525 8.94453 17.8125 6.98553 17.8125 4.5C17.8125 2.01447 15.7525 0.0554352 13.1388 0.0554352C10.538 0.0554352 8.46509 2.01447 8.46509 4.5C8.46509 6.98553 10.538 8.94453 13.1388 8.94453ZM13.1388 7.57321C11.3363 7.57321 9.94576 6.26313 9.94576 4.5C9.94576 2.73687 11.3363 1.42676 13.1388 1.42676C14.9413 1.42676 16.3318 2.73687 16.3318 4.5C16.3318 6.26313 14.9413 7.57321 13.1388 7.57321Z" fill="#282828"/>
<path fill-rule="evenodd" clip-rule="evenodd" d="M6.81211 8.78539H5.18985L3.28431 5.66316H1.53327V8.78539H0.0526123V4.40204H3.65769C4.44308 4.40204 5.07397 3.76535 5.07397 2.96949C5.07397 2.16139 4.44308 1.53695 3.65769 1.53695H0.0526123V0.2146H3.65769C5.2671 0.2146 6.55462 1.439 6.55462 2.96949C6.55462 4.07145 5.82074 5.05097 4.76496 5.45502L6.81211 8.78539Z" fill="#282828"/>
</svg>
