<?xml version="1.0" encoding="UTF-8"?>
<svg width="28px" height="30px" viewBox="0 0 28 30" version="1.1" xmlns="http://www.w3.org/2000/svg" xmlns:xlink="http://www.w3.org/1999/xlink">
    <!-- Generator: Sketch 52.4 (67378) - http://www.bohemiancoding.com/sketch -->
    <title>swipe</title>
    <desc>Created with Sketch.</desc>
    <g id="Page-1" stroke="none" stroke-width="1" fill="none" fill-rule="evenodd">
        <g id="metropolis_landing" transform="translate(-706.000000, -2807.000000)" fill="#3E5363">
            <g id="3-варианты-отделки" transform="translate(120.000000, 2388.000000)">
                <g id="Group" transform="translate(572.000000, 115.000000)">
                    <g id="swipe" transform="translate(14.000000, 304.000000)">
                        <path d="M25.3858537,2.66164634 L17.5809756,2.66164634 C17.2219512,2.66164634 16.9305488,2.95304878 16.9305488,3.31207317 C16.9305488,3.67109756 17.2219512,3.9625 17.5809756,3.9625 L25.3858537,3.9625 C25.744878,3.9625 26.0362805,3.67109756 26.0362805,3.31207317 C26.0362805,2.95304878 25.744878,2.66164634 25.3858537,2.66164634 Z" id="Path"></path>
                        <path d="M25.8463415,2.85286585 L23.2446951,0.251219512 C22.9910366,-0.00243902439 22.5786585,-0.00243902439 22.325,0.251219512 C22.0713415,0.504878049 22.0713415,0.917256098 22.325,1.17091463 L24.4661585,3.31207317 L22.3237195,5.4545122 C22.070061,5.70817073 22.070061,6.12054878 22.3237195,6.37420732 C22.4512195,6.50036585 22.6176829,6.56414634 22.7842073,6.56414634 C22.9507317,6.56414634 23.1171951,6.50042683 23.2446951,6.37420732 L25.8463415,3.77256098 C26.1,3.51884146 26.1,3.10652439 25.8463415,2.85286585 Z" id="Path"></path>
                        <path d="M8.47530488,2.66164634 L0.670426829,2.66164634 C0.311402439,2.66164634 0.02,2.95304878 0.02,3.31207317 C0.02,3.67109756 0.311402439,3.9625 0.670426829,3.9625 L8.47530488,3.9625 C8.83432927,3.9625 9.12573171,3.67109756 9.12573171,3.31207317 C9.12573171,2.95304878 8.83432927,2.66164634 8.47530488,2.66164634 Z" id="Path"></path>
                        <path d="M1.59006098,3.3120122 L3.73121951,1.17085366 C3.98487805,0.917195122 3.98487805,0.504817073 3.73121951,0.251158537 C3.47756098,-0.0025 3.06518293,-0.0025 2.81152439,0.251158537 L0.209939024,2.85286585 C-0.0437195122,3.10652439 -0.0437195122,3.51890244 0.209939024,3.77256098 L2.81158537,6.37420732 C2.93908537,6.50036585 3.10554878,6.56414634 3.27207317,6.56414634 C3.43859756,6.56414634 3.60506098,6.50042683 3.73128049,6.37292683 C3.98493902,6.11926829 3.98493902,5.70689024 3.73128049,5.45323171 L1.59006098,3.3120122 Z" id="Path"></path>
                        <path d="M24.7354268,13.0681098 C24.2007927,13.0681098 23.702561,13.2307317 23.2889024,13.5078049 C22.9325,12.4957927 21.9659756,11.7673171 20.8329878,11.7673171 C20.2983537,11.7673171 19.800122,11.929939 19.3864634,12.2070122 C19.030061,11.195 18.0635366,10.4665244 16.9305488,10.4665244 C16.4570732,10.4665244 16.0121951,10.5940244 15.6297561,10.8164634 L15.6297561,6.56408537 C15.6297561,5.12926829 14.4629268,3.96243902 13.0281098,3.96243902 C11.5932927,3.96243902 10.4264634,5.12926829 10.4264634,6.56408537 L10.4264634,17.6209756 L8.16567073,15.9260366 C6.82585366,14.9204878 4.91884146,15.0545122 3.73121951,16.2408537 C2.9702439,17.0018293 2.9702439,18.2389024 3.73121951,18.999878 L12.9943293,28.2642683 C14.1,29.369939 15.5712195,29.9787195 17.1348171,29.9787195 L20.182622,29.9787195 C24.1267073,29.9787195 27.3370732,26.7696341 27.3370732,22.8242683 L27.3370732,15.6697561 C27.3370732,14.234939 26.1702439,13.0681098 24.7354268,13.0681098 Z M26.0362805,22.8242073 C26.0362805,26.0515244 23.409939,28.6778659 20.182622,28.6778659 L17.1348171,28.6778659 C15.9172561,28.6778659 14.7738415,28.2043902 13.9140244,27.3445122 L4.65091463,18.0801829 C4.3972561,17.8265244 4.3972561,17.4141463 4.65091463,17.1604878 C5.05414634,16.7585366 5.59268293,16.5517073 6.13384146,16.5517073 C6.57353659,16.5517073 7.01579268,16.6882927 7.38652439,16.9666463 L10.6867073,19.4420732 C10.8844512,19.5903659 11.1498171,19.6125 11.3683537,19.5032317 C11.5881707,19.3926829 11.727378,19.167622 11.727378,18.9217683 L11.727378,6.56408537 C11.727378,5.84731707 12.310122,5.26329268 13.0281707,5.26329268 C13.7462195,5.26329268 14.3289634,5.84737805 14.3289634,6.56408537 L14.3289634,16.3201829 C14.3289634,16.6792073 14.6203659,16.9706098 14.9793902,16.9706098 C15.3384146,16.9706098 15.6298171,16.6792073 15.6298171,16.3201829 L15.6298171,13.0681707 C15.6298171,12.3514024 16.212561,11.767378 16.9306098,11.767378 C17.6486585,11.767378 18.2314024,12.3514634 18.2314024,13.0681707 L18.2314024,16.3201829 C18.2314024,16.6792073 18.5228049,16.9706098 18.8818293,16.9706098 C19.2408537,16.9706098 19.5322561,16.6792073 19.5322561,16.3201829 L19.5322561,14.3689634 C19.5322561,13.6521951 20.115,13.0681707 20.8330488,13.0681707 C21.5510976,13.0681707 22.1338415,13.6522561 22.1338415,14.3689634 L22.1338415,16.3201829 C22.1338415,16.6792073 22.4252439,16.9706098 22.7842683,16.9706098 C23.1432927,16.9706098 23.4346951,16.6792073 23.4346951,16.3201829 L23.4346951,15.6697561 C23.4346951,14.9529878 24.017439,14.3689634 24.7354878,14.3689634 C25.4535366,14.3689634 26.0362805,14.9530488 26.0362805,15.6697561 L26.0362805,22.8242073 Z" id="Shape" fill-rule="nonzero"></path>
                    </g>
                </g>
            </g>
        </g>
    </g>
</svg>