<svg width="61" height="51" viewBox="0 0 61 51" fill="none" xmlns="http://www.w3.org/2000/svg">
<path fill-rule="evenodd" clip-rule="evenodd" d="M41.464 9.6875C40.8592 4.27263 36.2618 0.0625 30.7033 0.0625C25.133 0.0625 20.545 4.26628 19.9423 9.6875H5.31738L13.1377 1.86719L11.333 0.0625L0.504883 10.8906L11.333 21.7188L13.1377 19.9141L5.31738 12.0938H19.8752V50.5938H41.5314V12.0938H56.0893L48.2689 19.9141L50.0736 21.7188L60.9018 10.8906L50.0736 0.0625L48.2689 1.86719L56.0893 9.6875H41.464ZM30.7033 4.875C27.381 4.875 24.6877 7.59058 24.6877 10.9141V19.3125H36.7189V10.9141C36.7189 7.57882 34.0488 4.875 30.7033 4.875ZM24.6877 26.5312V28.9375H36.7189V26.5312H24.6877ZM24.6877 31.3438V33.75H36.7189V31.3438H24.6877Z" fill="white"/>
</svg>
