<svg width="77" height="70" viewBox="0 0 77 70" fill="none" xmlns="http://www.w3.org/2000/svg">
<circle cx="37.4996" cy="34.5" r="13.609" stroke="url(#paint0_linear)" stroke-width="0.5"/>
<circle cx="37.4993" cy="34.5" r="6.50321" stroke="#00A0DC" stroke-width="0.25"/>
<path d="M14 35.5043L19.64 34.5L37.5 31.4872L55.36 34.5L61 35.5043L37.5 37.5128L14 35.5043Z" fill="#1C5630"/>
<path d="M34.4863 34.5L37.4991 11L40.512 34.5L37.4991 58L36.4949 50.01L34.4863 34.5Z" fill="#98C11D"/>
<path d="M32.518 6H33.036V1.289H35.724V6H36.242V0.82H32.518V6ZM37.4158 6H37.9338V3.571H40.6428V6H41.1608V0.82H40.6428V3.102H37.9338V0.82H37.4158V6Z" fill="black"/>
<path d="M32.518 68H33.036V63.289H35.724V68H36.242V62.82H32.518V68ZM39.9078 62.82H39.3478L37.4158 67.531H36.9468V68.98H37.4648V68H41.7908V68.98H42.3088V67.531H41.8398L39.9078 62.82ZM37.9758 67.531L39.6278 63.485L41.2798 67.531H37.9758Z" fill="black"/>
<path d="M0.448 34.171H0.966C0.952 33.674 1.267 33.198 1.946 33.198C2.688 33.198 2.912 33.737 2.912 34.115C2.912 34.521 2.716 35.088 1.848 35.088H1.54V35.557H1.848C2.709 35.557 3.052 36.054 3.052 36.607C3.052 37.174 2.667 37.622 1.897 37.622C1.057 37.622 0.707 37.02 0.728 36.418H0.21C0.154 37.265 0.721 38.091 1.897 38.091C3.045 38.091 3.57 37.349 3.57 36.593C3.57 35.977 3.248 35.445 2.646 35.291C3.052 35.109 3.43 34.752 3.43 34.122C3.43 33.443 3.01 32.729 1.939 32.729C0.882 32.729 0.427 33.45 0.448 34.171ZM3.97627 38H4.58527L6.05527 35.788L7.51827 38H8.12727L6.34927 35.354L8.02227 32.82H7.41327L6.05527 34.899L4.69027 32.82H4.08127L5.73327 35.354L3.97627 38Z" fill="black"/>
<path d="M71.369 34.143C70.935 33.247 70.06 32.729 68.982 32.729C67.484 32.729 66.294 33.856 66.294 35.396C66.294 36.978 67.505 38.091 69.024 38.091C70.039 38.091 70.907 37.552 71.39 36.649H70.774C70.354 37.321 69.654 37.622 69.024 37.622C67.792 37.622 66.812 36.67 66.812 35.396C66.812 34.213 67.687 33.198 68.989 33.198C70.102 33.198 70.613 33.926 70.753 34.143H71.369ZM71.8903 38H72.4993L73.9693 35.788L75.4323 38H76.0413L74.2633 35.354L75.9363 32.82H75.3273L73.9693 34.899L72.6043 32.82H71.9953L73.6473 35.354L71.8903 38Z" fill="black"/>
<defs>
<linearGradient id="paint0_linear" x1="37.4996" y1="26.5859" x2="37.4996" y2="46.749" gradientUnits="userSpaceOnUse">
<stop stop-color="#53A0CD"/>
<stop offset="1" stop-color="#12284C"/>
</linearGradient>
</defs>
</svg>
