<svg width="21" height="20" viewBox="0 0 21 20" fill="none" xmlns="http://www.w3.org/2000/svg">
<path d="M20.8998 13.9L18.1998 9.99995H19.1998C19.2998 9.99995 19.4998 9.89995 19.4998 9.79995C19.5998 9.69995 19.5998 9.49995 19.4998 9.39995L17.6998 6.79995H17.9998C18.0998 6.79995 18.2998 6.69995 18.2998 6.59995C18.3998 6.49995 18.3998 6.29995 18.2998 6.19995L16.6998 3.89995C16.5998 3.79995 16.4998 3.79995 16.3998 3.79995C16.2998 3.79995 16.1998 3.89995 16.0998 3.89995L14.4998 6.19995C14.3998 6.29995 14.3998 6.49995 14.4998 6.59995C14.5998 6.69995 14.6998 6.79995 14.7998 6.79995H15.0998L13.2998 9.39995C13.1998 9.49995 13.1998 9.69995 13.2998 9.79995C13.3998 9.89995 13.4998 9.99995 13.5998 9.99995H14.5998L11.8998 13.9C11.7998 14 11.7998 14.1999 11.8998 14.2999C11.9998 14.4 12.0998 14.5 12.1998 14.5H15.1998V17.7999H7.39981V15.2999L8.7998 14.2C8.89981 14.1 8.89981 14 8.7998 13.9L8.2998 13.2999C8.1998 13.1999 8.09981 13.1999 7.99981 13.2999L7.49981 13.7V11.5C7.79981 11.6 8.0998 11.7 8.39981 11.7C9.5998 11.7 10.5998 10.7 10.5998 9.49995C10.5998 9.29995 10.5998 9.19995 10.4998 8.99995C11.4998 8.79995 12.1998 7.89995 12.1998 6.89995C12.1998 5.89995 11.4998 4.99995 10.4998 4.79995C10.5998 4.59995 10.5998 4.39995 10.5998 4.19995C10.5998 2.99995 9.5998 1.99995 8.39981 1.99995C8.19981 1.99995 7.9998 1.99995 7.7998 2.09995V1.99995C7.7998 1.29995 7.19981 0.699951 6.49981 0.699951C5.79981 0.699951 5.19981 1.29995 5.19981 1.99995V2.09995C4.99981 1.99995 4.79981 1.99995 4.59981 1.99995C3.39981 1.99995 2.39981 2.99995 2.39981 4.19995C2.39981 4.39995 2.39981 4.59995 2.49981 4.79995C1.49981 4.99995 0.799805 5.89995 0.799805 6.89995C0.799805 7.89995 1.49981 8.79995 2.49981 8.99995C2.49981 9.19995 2.39981 9.29995 2.39981 9.49995C2.39981 10.7 3.39981 11.7 4.59981 11.7C4.89981 11.7 5.19981 11.6 5.49981 11.5V17.9H1.89981C1.49981 17.9 1.19981 18.1999 1.19981 18.5999C1.19981 18.9999 1.49981 19.2999 1.89981 19.2999H19.9998C20.3998 19.2999 20.6998 18.9999 20.6998 18.5999C20.6998 18.1999 20.3998 17.9 19.9998 17.9H17.3998V14.5999H20.3998C20.4998 14.5999 20.6998 14.5 20.6998 14.4C20.9998 14.1 20.9998 14 20.8998 13.9Z" fill="white"/>
</svg>
