<svg width="16" height="20" viewBox="0 0 16 20" fill="none" xmlns="http://www.w3.org/2000/svg">
<path d="M8.3 5.80002C12.5 3.90002 15.8 6.40002 15.8 10.6C15.8 15 12.7 21.7 7.9 19.6C3.4 21.6 0 15 0 10.6C0 6.40002 3.6 4.00002 7.4 5.70002C8.6 2.50002 9.7 1.00002 9.7 1.00002C9.8 0.800023 10.1 0.800022 10.3 0.800022L11.7 1.50002C11.9 1.60002 11.9 1.80002 11.7 1.90002C11.7 1.90002 10.5 2.80002 9.9 3.50002C9.3 4.40002 8.7 5.20002 8.3 5.80002ZM7.5 4.40002C7.5 4.40002 5.8 4.50002 4.6 3.40002C3.4 2.20002 3.6 0.500023 3.6 0.500023C3.6 0.300023 3.8 0.100023 4 0.100023C4 0.100023 5.7 2.31266e-05 6.9 1.10002C8.1 2.30002 7.9 4.00002 7.9 4.00002C7.9 4.20002 7.7 4.40002 7.5 4.40002Z" fill="white"/>
</svg>
