<svg width="20" height="15" viewBox="0 0 20 15" fill="none" xmlns="http://www.w3.org/2000/svg">
<path d="M1.2 11.6C1.2 11.9 1.5 12.2 1.8 12.2H18.2C18.5 12.2 18.8 11.9 18.8 11.6C18.8 7.3 15.7 3.7 11.6 3C11.7 2.8 11.8 2.5 11.8 2.3C11.8 1.3 11 0.5 10 0.5C9 0.5 8.2 1.3 8.2 2.3C8.2 2.6 8.3 2.8 8.4 3C4.3 3.7 1.2 7.3 1.2 11.6ZM9.4 2.3C9.4 2 9.7 1.7 10 1.7C10.3 1.7 10.6 2 10.6 2.3C10.6 2.6 10.3 2.9 10 2.9C9.7 2.9 9.4 2.6 9.4 2.3ZM19.4 13.4C19.7 13.4 20 13.7 20 14C20 14.3 19.7 14.6 19.4 14.6H0.6C0.3 14.6 0 14.3 0 14C0 13.7 0.3 13.4 0.6 13.4H19.4Z" fill="white"/>
</svg>
