<svg width="64" height="64" viewBox="0 0 64 64" fill="none" xmlns="http://www.w3.org/2000/svg">
<path d="M62.8623 63.9905H1.13768C0.509226 63.9905 0 63.4813 0 62.8529V1.14916C0 0.5207 0.509226 0.0114746 1.13768 0.0114746H62.8623C63.4908 0.0114746 64 0.5207 64 1.14916V62.8529C64 63.4813 63.4908 63.9905 62.8623 63.9905ZM39.8188 61.7152H61.7037V53.7064H39.8188V61.7152ZM15.6372 61.7152H37.5435V53.7064H15.6372V61.7152ZM2.27536 61.7152H13.3618V53.7064H2.27536V61.7152ZM50.6373 51.431H61.7033V43.4226H50.6373V51.431ZM38.6811 51.431H48.3619V43.4226H26.4565V51.4315H38.6811V51.431ZM14.4995 51.431H24.1807V43.4226H2.27536V51.4315H14.4995V51.431ZM49.4996 41.1473H61.7033V33.1385H39.8188V41.1468H49.4996V41.1473ZM25.3189 41.1473H37.5435V33.1385H15.6372V41.1468H25.3189V41.1473ZM2.27536 41.1473H13.3618V33.1385H2.27536V41.1473ZM50.6373 30.8631H61.7033V22.8547H50.6373V30.8631ZM38.6811 30.8631H48.3619V22.8547H26.4565V30.8636H38.6811V30.8631ZM14.4995 30.8631H24.1807V22.8547H2.27536V30.8636H14.4995V30.8631ZM49.4996 20.5794H61.7033V12.5706H39.8188V20.5794H49.4996ZM25.3189 20.5794H37.5435V12.5706H15.6372V20.5794H25.3189ZM2.27536 20.5794H13.3618V12.5706H2.27536V20.5794ZM50.6373 10.2952H61.7033V2.28684H50.6373V10.2952ZM38.6811 10.2952H48.3619V2.28684H26.4565V10.2952H38.6811ZM14.4995 10.2952H24.1807V2.28684H2.27536V10.2952H14.4995Z" fill="#1C5630"/>
</svg>
