<svg width="64" height="64" viewBox="0 0 64 64" fill="none" xmlns="http://www.w3.org/2000/svg">
<path d="M56.6203 64C56.6199 64 56.6192 64 56.6185 64L32.8326 63.9545H7.37955C6.87737 63.9545 6.47046 63.5476 6.47046 63.0455V22.1469C6.47046 21.6447 6.87737 21.2378 7.37955 21.2378H20.0745V0.909091C20.0745 0.406909 20.4814 0 20.9836 0H56.6199C57.1221 0 57.529 0.406909 57.529 0.909091V63.0909C57.529 63.3324 57.433 63.5636 57.2621 63.7346C57.0919 63.9044 56.861 64 56.6203 64ZM33.7432 62.1382L55.7108 62.18V1.81818H21.8926V21.2378H32.8341C33.3363 21.2378 33.7432 21.6447 33.7432 22.1469V62.1382ZM8.28864 62.1364H31.925V23.056H8.28864V62.1364ZM29.1185 56.2305H21.9261C21.4239 56.2305 21.017 55.8236 21.017 55.3215V51.1124C21.017 50.6102 21.4239 50.2033 21.9261 50.2033H29.1185C29.6206 50.2033 30.0275 50.6102 30.0275 51.1124V55.3215C30.0275 55.8236 29.6206 56.2305 29.1185 56.2305ZM22.8352 54.4124H28.2094V52.0215H22.8352V54.4124ZM18.2879 56.2305H11.0956C10.5934 56.2305 10.1865 55.8236 10.1865 55.3215V51.1124C10.1865 50.6102 10.5934 50.2033 11.0956 50.2033H18.2879C18.7901 50.2033 19.197 50.6102 19.197 51.1124V55.3215C19.197 55.8236 18.7901 56.2305 18.2879 56.2305ZM12.0046 54.4124H17.3788V52.0215H12.0046V54.4124ZM50.4414 55.7636H46.9639C46.4617 55.7636 46.0548 55.3567 46.0548 54.8545V51.0756C46.0548 50.5735 46.4617 50.1665 46.9639 50.1665H50.4414C50.9436 50.1665 51.3505 50.5735 51.3505 51.0756V54.8545C51.3505 55.3567 50.9436 55.7636 50.4414 55.7636ZM47.8734 53.9455H49.5326V51.9847H47.8734V53.9455ZM40.4126 55.7636H36.9352C36.433 55.7636 36.0261 55.3567 36.0261 54.8545V51.0756C36.0261 50.5735 36.433 50.1665 36.9352 50.1665H40.4126C40.9148 50.1665 41.3217 50.5735 41.3217 51.0756V54.8545C41.3217 55.3567 40.9148 55.7636 40.4126 55.7636ZM37.8443 53.9455H39.5036V51.9847H37.8443V53.9455ZM29.1185 48.0062H21.9261C21.4239 48.0062 21.017 47.5993 21.017 47.0971V42.888C21.017 42.3858 21.4239 41.9789 21.9261 41.9789H29.1185C29.6206 41.9789 30.0275 42.3858 30.0275 42.888V47.0971C30.0275 47.5989 29.6206 48.0062 29.1185 48.0062ZM22.8352 46.188H28.2094V43.7971H22.8352V46.188ZM18.2879 48.0062H11.0956C10.5934 48.0062 10.1865 47.5993 10.1865 47.0971V42.888C10.1865 42.3858 10.5934 41.9789 11.0956 41.9789H18.2879C18.7901 41.9789 19.197 42.3858 19.197 42.888V47.0971C19.197 47.5989 18.7901 48.0062 18.2879 48.0062ZM12.0046 46.188H17.3788V43.7971H12.0046V46.188ZM50.4414 46.7051H46.9639C46.4617 46.7051 46.0548 46.2982 46.0548 45.796V42.0175C46.0548 41.5153 46.4617 41.1084 46.9639 41.1084H50.4414C50.9436 41.1084 51.3505 41.5153 51.3505 42.0175V45.796C51.3505 46.2982 50.9436 46.7051 50.4414 46.7051ZM47.8734 44.8869H49.5326V42.9265H47.8734V44.8869ZM40.4126 46.7051H36.9352C36.433 46.7051 36.0261 46.2982 36.0261 45.796V42.0175C36.0261 41.5153 36.433 41.1084 36.9352 41.1084H40.4126C40.9148 41.1084 41.3217 41.5153 41.3217 42.0175V45.796C41.3217 46.2982 40.9148 46.7051 40.4126 46.7051ZM37.8443 44.8869H39.5036V42.9265H37.8443V44.8869ZM29.1185 39.7815H21.9261C21.4239 39.7815 21.017 39.3745 21.017 38.8724V34.6633C21.017 34.1611 21.4239 33.7542 21.9261 33.7542H29.1185C29.6206 33.7542 30.0275 34.1611 30.0275 34.6633V38.8724C30.0275 39.3745 29.6206 39.7815 29.1185 39.7815ZM22.8352 37.9633H28.2094V35.5724H22.8352V37.9633ZM18.2879 39.7815H11.0956C10.5934 39.7815 10.1865 39.3745 10.1865 38.8724V34.6633C10.1865 34.1611 10.5934 33.7542 11.0956 33.7542H18.2879C18.7901 33.7542 19.197 34.1611 19.197 34.6633V38.8724C19.197 39.3745 18.7901 39.7815 18.2879 39.7815ZM12.0046 37.9633H17.3788V35.5724H12.0046V37.9633ZM50.4414 37.6465H46.9639C46.4617 37.6465 46.0548 37.2396 46.0548 36.7375V32.9589C46.0548 32.4567 46.4617 32.0498 46.9639 32.0498H50.4414C50.9436 32.0498 51.3505 32.4567 51.3505 32.9589V36.7378C51.3505 37.2396 50.9436 37.6465 50.4414 37.6465ZM47.8734 35.8284H49.5326V33.8676H47.8734V35.8284ZM40.4126 37.6465H36.9352C36.433 37.6465 36.0261 37.2396 36.0261 36.7375V32.9589C36.0261 32.4567 36.433 32.0498 36.9352 32.0498H40.4126C40.9148 32.0498 41.3217 32.4567 41.3217 32.9589V36.7378C41.3217 37.2396 40.9148 37.6465 40.4126 37.6465ZM37.8443 35.8284H39.5036V33.8676H37.8443V35.8284ZM29.1185 31.5567H21.9261C21.4239 31.5567 21.017 31.1498 21.017 30.6476V26.4385C21.017 25.9364 21.4239 25.5295 21.9261 25.5295H29.1185C29.6206 25.5295 30.0275 25.9364 30.0275 26.4385V30.648C30.0275 31.1498 29.6206 31.5567 29.1185 31.5567ZM22.8352 29.7385H28.2094V27.3473H22.8352V29.7385ZM18.2879 31.5567H11.0956C10.5934 31.5567 10.1865 31.1498 10.1865 30.6476V26.4385C10.1865 25.9364 10.5934 25.5295 11.0956 25.5295H18.2879C18.7901 25.5295 19.197 25.9364 19.197 26.4385V30.648C19.197 31.1498 18.7901 31.5567 18.2879 31.5567ZM12.0046 29.7385H17.3788V27.3473H12.0046V29.7385ZM50.4414 28.588H46.9639C46.4617 28.588 46.0548 28.1811 46.0548 27.6789V23.9004C46.0548 23.3982 46.4617 22.9913 46.9639 22.9913H50.4414C50.9436 22.9913 51.3505 23.3982 51.3505 23.9004V27.6789C51.3505 28.1811 50.9436 28.588 50.4414 28.588ZM47.8734 26.7698H49.5326V24.8095H47.8734V26.7698ZM40.4126 28.588H36.9352C36.433 28.588 36.0261 28.1811 36.0261 27.6789V23.9004C36.0261 23.3982 36.433 22.9913 36.9352 22.9913H40.4126C40.9148 22.9913 41.3217 23.3982 41.3217 23.9004V27.6789C41.3217 28.1811 40.9148 28.588 40.4126 28.588ZM37.8443 26.7698H39.5036V24.8095H37.8443V26.7698ZM50.4414 19.5298H46.9639C46.4617 19.5298 46.0548 19.1229 46.0548 18.6207V14.8418C46.0548 14.3396 46.4617 13.9327 46.9639 13.9327H50.4414C50.9436 13.9327 51.3505 14.3396 51.3505 14.8418V18.6207C51.3505 19.1225 50.9436 19.5298 50.4414 19.5298ZM47.8734 17.7116H49.5326V15.7509H47.8734V17.7116ZM40.4126 19.5298H36.9352C36.433 19.5298 36.0261 19.1229 36.0261 18.6207V14.8418C36.0261 14.3396 36.433 13.9327 36.9352 13.9327H40.4126C40.9148 13.9327 41.3217 14.3396 41.3217 14.8418V18.6207C41.3217 19.1225 40.9148 19.5298 40.4126 19.5298ZM37.8443 17.7116H39.5036V15.7509H37.8443V17.7116ZM30.3836 19.5298H26.9061C26.4039 19.5298 25.997 19.1229 25.997 18.6207V14.8418C25.997 14.3396 26.4039 13.9327 26.9061 13.9327H30.3836C30.8857 13.9327 31.2926 14.3396 31.2926 14.8418V18.6207C31.2926 19.1225 30.8857 19.5298 30.3836 19.5298ZM27.8155 17.7116H29.4748V15.7509H27.8155V17.7116ZM50.4414 10.4709H46.9639C46.4617 10.4709 46.0548 10.064 46.0548 9.56182V5.78327C46.0548 5.28109 46.4617 4.87418 46.9639 4.87418H50.4414C50.9436 4.87418 51.3505 5.28109 51.3505 5.78327V9.56218C51.3505 10.064 50.9436 10.4709 50.4414 10.4709ZM47.8734 8.65273H49.5326V6.692H47.8734V8.65273ZM40.4126 10.4709H36.9352C36.433 10.4709 36.0261 10.064 36.0261 9.56182V5.78327C36.0261 5.28109 36.433 4.87418 36.9352 4.87418H40.4126C40.9148 4.87418 41.3217 5.28109 41.3217 5.78327V9.56218C41.3217 10.064 40.9148 10.4709 40.4126 10.4709ZM37.8443 8.65273H39.5036V6.692H37.8443V8.65273ZM30.3836 10.4709H26.9061C26.4039 10.4709 25.997 10.064 25.997 9.56182V5.78327C25.997 5.28109 26.4039 4.87418 26.9061 4.87418H30.3836C30.8857 4.87418 31.2926 5.28109 31.2926 5.78327V9.56218C31.2926 10.064 30.8857 10.4709 30.3836 10.4709ZM27.8155 8.65273H29.4748V6.692H27.8155V8.65273Z" fill="#1C5630"/>
</svg>
