<svg width="64" height="64" viewBox="0 0 64 64" fill="none" xmlns="http://www.w3.org/2000/svg">
<g clip-path="url(#clip0)">
<path d="M33.791 59.7115C33.0288 59.7115 32.2631 59.5542 31.5429 59.2355L17.3867 52.9783C15.5623 52.1714 13.4626 52.3225 11.7717 53.3813L7.75818 55.8945C7.35864 56.1439 6.83252 56.0238 6.58243 55.6243C6.33267 55.2251 6.45345 54.6986 6.85265 54.4489L10.8661 51.9356C13.0375 50.5756 15.7333 50.3822 18.0766 51.418L32.2328 57.6752C33.413 58.1972 34.7672 58.0952 35.8563 57.4023L61.5923 41.0304C62.2709 40.5984 62.494 39.711 62.0996 39.0095L61.1641 37.3461C60.9621 36.9872 60.6315 36.731 60.2333 36.6252C59.8344 36.5194 59.4212 36.5771 59.0674 36.7883L57.3522 37.8119C56.605 38.2571 55.6353 38.0442 55.144 37.3263L54.0751 35.764C53.6076 35.0803 52.6963 34.8974 52.0013 35.3481L49.4713 36.9872C48.7343 37.4638 47.764 37.2741 47.2611 36.5549L46.3763 35.2874C45.9021 34.6084 44.9614 34.4364 44.278 34.9045L38.0201 39.191H40.6422C43.366 39.191 45.582 41.407 45.582 44.1305C45.582 46.8539 43.3663 49.0699 40.6422 49.0699H30.9721C29.9922 49.0699 29.0099 48.8403 28.1313 48.4056L22.6278 45.6836C22.2057 45.4748 22.0328 44.9633 22.2412 44.5409C22.45 44.1189 22.9612 43.9455 23.3842 44.1547L28.8877 46.8767C29.5326 47.1954 30.2532 47.364 30.9721 47.364H40.6422C42.4253 47.364 43.8761 45.9135 43.8761 44.1305C43.8761 42.3474 42.4253 40.8969 40.6422 40.8969H35.2653C35.2605 40.8969 35.2558 40.8969 35.251 40.8969L29.8772 40.8256C29.7315 40.8236 29.5885 40.7844 29.4623 40.7117L20.6407 35.6258C17.6088 33.8775 13.9096 33.7284 10.7464 35.2266L1.2185 39.7403C0.792689 39.9419 0.284308 39.7601 0.0823206 39.3346C-0.119326 38.9088 0.0621901 38.4001 0.488001 38.1984L10.0159 33.6851C13.6847 31.9467 17.9753 32.12 21.493 34.1478L30.1222 39.1227L35.0064 39.1879L43.3141 33.4974C44.7662 32.5025 46.7673 32.8676 47.7752 34.3112L48.6129 35.5112L51.0736 33.9168C52.5506 32.9597 54.4879 33.3473 55.4832 34.8012L56.5228 36.3205L58.1933 35.3235C58.9449 34.8749 59.8252 34.7517 60.6724 34.9769C61.5186 35.2024 62.2214 35.7466 62.651 36.5102L63.5866 38.1735C64.4249 39.6649 63.951 41.552 62.508 42.4699L36.772 58.8418C35.8655 59.4187 34.831 59.7115 33.791 59.7115ZM43.0708 25.8741C38.7844 25.8741 34.9879 23.4056 33.24 19.5368H30.6865C30.4603 19.5368 30.2433 19.447 30.0833 19.287L29.4855 18.6896L28.8877 19.287C28.7277 19.447 28.511 19.5368 28.2845 19.5368H26.0582C25.832 19.5368 25.615 19.4467 25.4549 19.287L25.1028 18.9349L24.7504 19.2874C24.5904 19.4474 24.3737 19.5371 24.1471 19.5371H21.7455C21.5193 19.5371 21.3023 19.4474 21.1422 19.2874L19.5628 17.708L17.9831 19.2874C17.8231 19.4474 17.6064 19.5371 17.3799 19.5371H16.6961C16.4699 19.5371 16.2529 19.447 16.0929 19.2874L15.6708 18.865L15.2484 19.2874C15.0884 19.4474 14.8718 19.5371 14.6452 19.5371H11.1722C10.9187 19.5371 10.6785 19.4242 10.5161 19.2294L9.65113 18.1887C9.52387 18.0355 9.45426 17.8427 9.45426 17.6435V13.1322C9.45426 12.877 9.56856 12.6351 9.76578 12.473L11.7785 10.8192C11.931 10.6937 12.1224 10.6254 12.32 10.6254H33.24C34.9876 6.75663 38.7844 4.28809 43.0708 4.28809C49.022 4.28809 53.8639 9.12964 53.8639 15.0811C53.8639 21.0326 49.0223 25.8741 43.0708 25.8741ZM31.04 17.8308H33.8071C34.1588 17.8308 34.4744 18.0468 34.602 18.3743C35.9716 21.8937 39.2959 24.1682 43.0708 24.1682C48.0816 24.1682 52.1579 20.0919 52.1579 15.0811C52.1579 10.0703 48.0816 5.99406 43.0708 5.99406C39.2959 5.99406 35.9713 8.26847 34.602 11.7879C34.4744 12.1154 34.1588 12.3314 33.8071 12.3314H12.6257L11.9812 12.8606H33.5003C33.9715 12.8606 34.3533 13.2424 34.3533 13.7136C34.3533 14.1848 33.9715 14.5666 33.5003 14.5666H11.1602V17.3347L11.5724 17.8305H14.2931L15.0686 17.0549C15.2286 16.8949 15.4453 16.8052 15.6719 16.8052C15.8981 16.8052 16.1151 16.8952 16.2751 17.0549L17.039 17.8192L18.9606 15.8979C19.1207 15.7379 19.3373 15.6482 19.5639 15.6482C19.7901 15.6482 20.0071 15.7382 20.1671 15.8979L22.0996 17.8308H23.795L24.5006 17.1252C24.6606 16.9652 24.8773 16.8755 25.1039 16.8755C25.3301 16.8755 25.5471 16.9655 25.7071 17.1252L26.4127 17.8308H27.9324L28.8833 16.8799C29.2166 16.5465 29.7564 16.5465 30.0894 16.8799L31.04 17.8308ZM47.911 17.8274C46.3968 17.8274 45.1644 16.5953 45.1644 15.0811C45.1644 13.5669 46.3965 12.3348 47.911 12.3348C49.4256 12.3348 50.6573 13.5669 50.6573 15.0811C50.6573 16.5957 49.4253 17.8274 47.911 17.8274ZM47.911 14.0408C47.3371 14.0408 46.8704 14.5076 46.8704 15.0811C46.8704 15.6547 47.3371 16.1214 47.911 16.1214C48.4846 16.1214 48.9513 15.6547 48.9513 15.0811C48.9513 14.5076 48.4842 14.0408 47.911 14.0408Z" fill="#1C5630"/>
</g>
<defs>
<clipPath id="clip0">
<rect width="64" height="64" fill="white"/>
</clipPath>
</defs>
</svg>
