<svg width="64" height="64" viewBox="0 0 64 64" fill="none" xmlns="http://www.w3.org/2000/svg">
<path d="M50.2832 62.6799C46.8582 62.6799 44.0538 59.972 43.8984 56.5848H42.0374C41.8819 59.972 39.0776 62.6799 35.6526 62.6799C32.2275 62.6799 29.4232 59.972 29.2677 56.5848H27.4067C27.2513 59.972 24.4469 62.6799 21.0219 62.6799C17.5969 62.6799 14.7925 59.972 14.6371 56.5848H12.7761C12.6206 59.972 9.8163 62.6799 6.39126 62.6799C2.86712 62.6799 0 59.8128 0 56.2886V7.71133C0 4.18719 2.86712 1.32007 6.39126 1.32007C9.9154 1.32007 12.7825 4.18719 12.7825 7.71133V8.7466H14.6303V7.71133C14.6303 4.18719 17.4974 1.32007 21.0215 1.32007C24.5457 1.32007 27.4128 4.18719 27.4128 7.71133V8.7466H29.2605V7.71133C29.2605 4.18719 32.1277 1.32007 35.6518 1.32007C39.1759 1.32007 42.0431 4.18719 42.0431 7.71133V8.7466H43.8908V7.71133C43.8908 4.18719 46.7579 1.32007 50.2821 1.32007C53.8062 1.32007 56.6733 4.18719 56.6733 7.71133V8.76135H59.4667C59.4985 8.76135 59.5302 8.76286 59.5612 8.76627C62.0168 8.81657 63.9989 10.83 63.9989 13.2973C63.9989 15.7639 62.0191 17.7765 59.565 17.8287C59.5325 17.8321 59.4996 17.834 59.4663 17.834H56.6729V47.5118H59.4663C59.5 47.5118 59.5329 47.5137 59.5654 47.5171C62.0191 47.57 63.9989 49.5823 63.9989 52.0481C63.9989 54.5139 62.0191 56.5269 59.565 56.5791C59.5325 56.5825 59.4996 56.5844 59.4663 56.5844H56.6665C56.5122 59.972 53.7079 62.6799 50.2832 62.6799ZM45.7828 55.6392V56.2886C45.7828 58.7703 47.8015 60.7887 50.2828 60.7887C52.7641 60.7887 54.7828 58.7699 54.7828 56.2886V7.71133C54.7828 5.22964 52.7641 3.21131 50.2828 3.21131C47.8015 3.21131 45.7828 5.23002 45.7828 7.71133V55.6392ZM31.1522 55.6392V56.2886C31.1522 58.7703 33.1709 60.7887 35.6522 60.7887C38.1335 60.7887 40.1522 58.7699 40.1522 56.2886V7.71133C40.1522 5.22964 38.1335 3.21131 35.6522 3.21131C33.1709 3.21131 31.1522 5.23002 31.1522 7.71133V55.6392ZM16.5219 55.6392V56.2886C16.5219 58.7703 18.5406 60.7887 21.0219 60.7887C23.5032 60.7887 25.5219 58.7699 25.5219 56.2886V7.71133C25.5219 5.22964 23.5032 3.21131 21.0219 3.21131C18.5406 3.21131 16.5219 5.23002 16.5219 7.71133V55.6392ZM6.39126 3.21131C3.90995 3.21131 1.89124 5.23002 1.89124 7.71133V56.2886C1.89124 58.7703 3.90995 60.7887 6.39126 60.7887C8.87257 60.7887 10.8913 58.7699 10.8913 56.2886V7.71133C10.8917 5.23002 8.87295 3.21131 6.39126 3.21131ZM56.6745 54.6936H59.3793C59.4084 54.6909 59.4376 54.6894 59.4674 54.6894C60.9241 54.6894 62.1084 53.5047 62.1084 52.0485C62.1084 50.5922 60.9237 49.4075 59.4674 49.4075C59.4376 49.4075 59.4084 49.406 59.3793 49.4034H56.6745V54.6936ZM42.0438 54.6936H43.8916V49.4034H42.0438V54.6936ZM27.4135 54.6936H29.2613V49.4034H27.4135V54.6936ZM12.7829 54.6936H14.6306V49.4034H12.7829V54.6936ZM42.0438 47.5121H43.8916V17.8196H42.0438V47.5121ZM27.4135 47.5121H29.2613V17.8196H27.4135V47.5121ZM12.7829 47.5121H14.6306V17.8196H12.7829V47.5121ZM56.6745 15.9432H59.3793C59.4084 15.9405 59.4376 15.939 59.4674 15.939C60.9241 15.939 62.1084 14.7539 62.1084 13.2977C62.1084 11.8414 60.9237 10.6568 59.4674 10.6568C59.4391 10.6568 59.4111 10.6556 59.3831 10.653H56.6741V15.9432H56.6745ZM42.0438 15.9284H43.8916V10.6382H42.0438V15.9284ZM27.4135 15.9284H29.2613V10.6382H27.4135V15.9284ZM12.7829 15.9284H14.6306V10.6382H12.7829V15.9284Z" fill="#1C5630"/>
</svg>
