<svg width="64" height="64" viewBox="0 0 64 64" fill="none" xmlns="http://www.w3.org/2000/svg">
<path d="M61.1277 64H2.87206C2.39128 64 2.00171 63.6104 2.00171 63.1296V0.870355C2.00171 0.389571 2.39128 0 2.87206 0H61.1281C61.6089 0 61.9984 0.389571 61.9984 0.870355V63.1296C61.9981 63.6104 61.6085 64 61.1277 64ZM51.2057 62.2593H60.2574V1.74071H3.74242V62.2593H12.7941V9.97984C12.7941 9.49906 13.1837 9.10949 13.6645 9.10949H50.3357C50.8165 9.10949 51.206 9.49906 51.206 9.97984V62.2593H51.2057ZM32.8704 62.2593H49.4653V10.8502H32.8704V62.2593ZM14.5348 62.2593H31.1297V10.8502H14.5348V62.2593ZM11.0726 43.2274H5.77801C5.29722 43.2274 4.90765 42.8378 4.90765 42.3571V33.1894C4.90765 32.7086 5.29722 32.3191 5.77801 32.3191H11.0726C11.5533 32.3191 11.9429 32.7086 11.9429 33.1894V42.3571C11.9429 42.8378 11.5533 43.2274 11.0726 43.2274ZM6.64836 41.4867H10.2022V34.0598H6.64836V41.4867ZM8.42563 40.5004C7.94484 40.5004 7.55527 40.1108 7.55527 39.6301V39.5521C7.55527 39.0713 7.94484 38.6817 8.42563 38.6817C8.90641 38.6817 9.29598 39.0713 9.29598 39.5521V39.6301C9.29598 40.1108 8.90641 40.5004 8.42563 40.5004ZM8.42563 36.7454C7.94484 36.7454 7.55527 36.3558 7.55527 35.875V35.8005C7.55527 35.3197 7.94484 34.9301 8.42563 34.9301C8.90641 34.9301 9.29598 35.3197 9.29598 35.8005V35.875C9.29598 36.3558 8.90641 36.7454 8.42563 36.7454ZM50.5268 6.22304H50.476C49.9952 6.22304 49.6056 5.83347 49.6056 5.35268C49.6056 4.8719 49.9952 4.48233 50.476 4.48233H50.5268C51.0076 4.48233 51.3972 4.8719 51.3972 5.35268C51.3972 5.83347 51.0076 6.22304 50.5268 6.22304ZM45.7057 6.22304H45.6417C45.1609 6.22304 44.7713 5.83347 44.7713 5.35268C44.7713 4.8719 45.1609 4.48233 45.6417 4.48233H45.7057C46.1865 4.48233 46.5761 4.8719 46.5761 5.35268C46.5761 5.83347 46.1865 6.22304 45.7057 6.22304ZM41.1217 6.22304H41.0733C40.5926 6.22304 40.203 5.83347 40.203 5.35268C40.203 4.8719 40.5926 4.48233 41.0733 4.48233H41.1217C41.6025 4.48233 41.9921 4.8719 41.9921 5.35268C41.9921 5.83347 41.6025 6.22304 41.1217 6.22304ZM36.5597 6.22304H36.5054C36.0246 6.22304 35.635 5.83347 35.635 5.35268C35.635 4.8719 36.0246 4.48233 36.5054 4.48233H36.5597C37.0405 4.48233 37.43 4.8719 37.43 5.35268C37.43 5.83347 37.0405 6.22304 36.5597 6.22304ZM32.0001 6.22304H31.9371C31.4563 6.22304 31.0667 5.83347 31.0667 5.35268C31.0667 4.8719 31.4563 4.48233 31.9371 4.48233H32.0001C32.4809 4.48233 32.8704 4.8719 32.8704 5.35268C32.8704 5.83347 32.4805 6.22304 32.0001 6.22304ZM27.4352 6.22304H27.3691C26.8883 6.22304 26.4987 5.83347 26.4987 5.35268C26.4987 4.8719 26.8883 4.48233 27.3691 4.48233H27.4352C27.916 4.48233 28.3056 4.8719 28.3056 5.35268C28.3056 5.83347 27.916 6.22304 27.4352 6.22304ZM22.8805 6.22304H22.8008C22.32 6.22304 21.9304 5.83347 21.9304 5.35268C21.9304 4.8719 22.32 4.48233 22.8008 4.48233H22.8805C23.3613 4.48233 23.7508 4.8719 23.7508 5.35268C23.7508 5.83347 23.3613 6.22304 22.8805 6.22304ZM18.3111 6.22304H18.2324C17.7517 6.22304 17.3621 5.83347 17.3621 5.35268C17.3621 4.8719 17.7517 4.48233 18.2324 4.48233H18.3111C18.7919 4.48233 19.1815 4.8719 19.1815 5.35268C19.1815 5.83347 18.7919 6.22304 18.3111 6.22304ZM13.7707 6.22304H13.6645C13.1837 6.22304 12.7941 5.83347 12.7941 5.35268C12.7941 4.8719 13.1837 4.48233 13.6645 4.48233H13.771C14.2518 4.48233 14.6414 4.8719 14.6414 5.35268C14.6414 5.83347 14.2514 6.22304 13.7707 6.22304Z" fill="#1C5630"/>
</svg>
