<svg width="72" height="72" viewBox="0 0 72 72" fill="none" xmlns="http://www.w3.org/2000/svg">
<path d="M70.8 8.40015H1.2C0.537305 8.40015 0 8.93745 0 9.60015V62.4001C0 63.0628 0.537305 63.6001 1.2 63.6001H70.8C71.4627 63.6001 72 63.0628 72 62.4001V9.60015C72 8.93745 71.4627 8.40015 70.8 8.40015ZM50.4 61.2001V50.4001H48V61.2001H24V50.4001H21.6V61.2001H2.4V46.8001H18V44.4001H2.4V27.6001H18V25.2001H2.4V10.8001H21.6V21.6001H24V10.8001H48V21.6001H50.4V10.8001H69.6V25.2001H54V27.6001H69.6V44.4001H54V46.8001H69.6V61.2001H50.4Z" fill="#1C5630"/>
<path d="M27.6001 25.2H44.4001V27.6H27.6001V25.2Z" fill="#1C5630"/>
<path d="M27.6001 44.3999H44.4001V46.7999H27.6001V44.3999Z" fill="#1C5630"/>
<path d="M48 31.2002H50.4V40.8002H48V31.2002Z" fill="#1C5630"/>
<path d="M21.6001 31.2002H24.0001V40.8002H21.6001V31.2002Z" fill="#1C5630"/>
<path d="M25.2001 26.4C25.2001 27.7254 24.1255 28.8 22.8001 28.8C21.4748 28.8 20.4001 27.7254 20.4001 26.4C20.4001 25.0746 21.4748 24 22.8001 24C24.1255 24 25.2001 25.0746 25.2001 26.4Z" fill="#1C5630"/>
<path d="M51.6 26.4C51.6 27.7254 50.5254 28.8 49.2 28.8C47.8747 28.8 46.8 27.7254 46.8 26.4C46.8 25.0746 47.8747 24 49.2 24C50.5254 24 51.6 25.0746 51.6 26.4Z" fill="#1C5630"/>
<path d="M25.2001 45.6C25.2001 46.9254 24.1255 48 22.8001 48C21.4748 48 20.4001 46.9254 20.4001 45.6C20.4001 44.2746 21.4748 43.2 22.8001 43.2C24.1255 43.2 25.2001 44.2746 25.2001 45.6Z" fill="#1C5630"/>
<path d="M51.6 45.6C51.6 46.9254 50.5254 48 49.2 48C47.8747 48 46.8 46.9254 46.8 45.6C46.8 44.2746 47.8747 43.2 49.2 43.2C50.5254 43.2 51.6 44.2746 51.6 45.6Z" fill="#1C5630"/>
</svg>
