<svg width="65" height="63" viewBox="0 0 65 63" fill="none" xmlns="http://www.w3.org/2000/svg">
<g clip-path="url(#clip0)">
<path d="M61.1718 12.4431H29.3037C28.6594 9.94467 26.3244 8.08801 23.5498 8.08801H23.1368L19.8765 0.61905C19.7128 0.243756 19.3332 0 18.9128 0C18.4925 0 18.1129 0.243879 17.9491 0.61905L14.6888 8.08801H12.1726C11.5946 8.08801 11.1261 8.54218 11.1261 9.10229V12.443H3.82797C3.24995 12.443 2.78149 12.8972 2.78149 13.4573V21.5456C2.78149 22.1057 3.24995 22.5598 3.82797 22.5598H11.1264V24.8638C11.1264 25.4239 11.5949 25.878 12.1729 25.878H13.694V55.5795H6.60952C6.0315 55.5795 5.56304 56.0337 5.56304 56.5938V61.9858C5.56304 62.546 6.0315 63.0001 6.60952 63.0001H21.1985C21.7765 63.0001 22.245 62.546 22.245 61.9858C22.245 61.4257 21.7765 60.9716 21.1985 60.9716H7.656V57.6081H30.1697V60.9716H24.5471C23.9691 60.9716 23.5007 61.4257 23.5007 61.9858C23.5007 62.546 23.9691 63.0001 24.5471 63.0001H31.2161C31.7941 63.0001 32.2626 62.546 32.2626 61.9858V56.5938C32.2626 56.0337 31.7941 55.5795 31.2161 55.5795H24.1318V25.8779H28.4346C29.0126 25.8779 29.4811 25.4237 29.4811 24.8636V22.5597H54.9902V31.7618H54.3624C53.7844 31.7618 53.3159 32.216 53.3159 32.7761C53.3159 33.3362 53.7844 33.7903 54.3624 33.7903H54.9902V36.3736C54.9902 36.9337 55.4586 37.3879 56.0367 37.3879C57.0819 37.3879 57.9323 38.212 57.9323 39.2251C57.9323 40.2381 57.0819 41.0624 56.0367 41.0624C54.9915 41.0624 54.141 40.2381 54.141 39.2251C54.141 38.665 53.6725 38.2108 53.0945 38.2108C52.5165 38.2108 52.048 38.665 52.048 39.2251C52.048 41.3566 53.8372 43.091 56.0367 43.091C58.2361 43.091 60.0253 41.3568 60.0253 39.2251C60.0253 37.4445 58.7764 35.941 57.0831 35.4943V33.7903H57.7109C58.2889 33.7903 58.7574 33.3362 58.7574 32.7761C58.7574 32.216 58.2889 31.7618 57.7109 31.7618H57.0831V22.5597H61.1719C61.7499 22.5597 62.2184 22.1055 62.2184 21.5454V13.4573C62.2183 12.8972 61.7498 12.4431 61.1718 12.4431ZM4.87445 20.5313V15.9062L9.64637 20.5313H4.87445ZM11.1261 19.0968L6.35422 14.4717H11.1261V19.0968ZM18.9128 3.61746L20.8644 8.08813H16.9614L18.9128 3.61746ZM22.0387 55.5794H17.2667L22.0387 50.9543V55.5794ZM15.7869 54.1452V42.8665L21.6053 48.5058L15.7869 54.1452ZM22.0387 46.057L16.2203 40.4177L22.0387 34.7784V46.057ZM15.7869 37.969V27.3124L21.2843 32.6407L15.7869 37.969ZM22.0387 30.503L17.2667 25.8779H22.0387V30.503ZM27.3881 19.2173H19.8522V16.2107C19.8522 15.6506 19.3837 15.1964 18.8057 15.1964C18.2277 15.1964 17.7592 15.6506 17.7592 16.2107V20.2315C17.7592 20.7916 18.2277 21.2458 18.8057 21.2458H27.388V23.8494H13.2191V10.1167H17.7591V12.8974C17.7591 13.4575 18.2275 13.9117 18.8055 13.9117C19.3836 13.9117 19.852 13.4575 19.852 12.8974V10.1167H22.4398C22.4411 10.1167 22.4424 10.1169 22.4437 10.1169C22.4454 10.1169 23.5498 10.1167 23.5498 10.1167C25.6662 10.1167 27.388 11.7856 27.388 13.8368V19.2173H27.3881ZM29.4809 19.0968V14.4717H34.2529L29.4809 19.0968ZM30.961 20.5313L36.4584 15.203L41.9557 20.5313H30.961ZM38.6638 14.4717H50.3005L44.4821 20.1111L38.6638 14.4717ZM47.0086 20.5313L52.827 14.8919L58.6454 20.5313H47.0086ZM60.1253 19.0968L55.3534 14.4717H60.1253V19.0968Z" fill="#1C5630"/>
</g>
<defs>
<clipPath id="clip0">
<rect width="65" height="63" fill="white"/>
</clipPath>
</defs>
</svg>
