<svg width="64" height="62" viewBox="0 0 64 62" fill="none" xmlns="http://www.w3.org/2000/svg">
<path d="M59.1135 62H4.88706C4.34594 62 3.90747 61.5752 3.90747 61.051V56.9237C3.90747 56.3995 4.34594 55.9747 4.88706 55.9747H8.68554V0.948982C8.68554 0.424764 9.124 0 9.66513 0H54.3346C54.8757 0 55.3142 0.424764 55.3142 0.948982V55.9747H59.1131C59.6542 55.9747 60.0927 56.3995 60.0927 56.9237V61.0514C60.093 61.5752 59.6542 62 59.1135 62ZM5.86666 60.102H58.1339V57.8723H5.86666V60.102ZM10.6447 55.9747H53.355V1.89796H10.6447V55.9747ZM50.4162 54.0286H33.9591C33.4179 54.0286 32.9795 53.6038 32.9795 53.0796V4.49172C32.9795 3.9675 33.4179 3.54274 33.9591 3.54274H38.5428C38.5475 3.54274 38.5526 3.54274 38.5596 3.54274H42.1371C42.1441 3.54274 42.1508 3.54274 42.1579 3.54274H45.1879C45.1915 3.54274 45.1942 3.54274 45.1962 3.54274H50.4158C50.957 3.54274 51.3954 3.9675 51.3954 4.49172V45.9596C51.3954 45.9611 51.3954 45.9626 51.3954 45.9641V53.0796C51.3958 53.6038 50.9574 54.0286 50.4162 54.0286ZM34.9387 52.1306H49.4366V46.3175C48.45 45.1761 44.9517 40.6995 42.1195 31.7203C39.2786 22.7133 37.957 9.0529 37.6455 5.44108H34.9387V52.1306ZM39.6137 5.4407C39.9495 9.21044 41.2849 22.5789 43.9932 31.1657C45.8431 37.03 47.9853 40.8897 49.437 43.0747V5.4407H46.2459C46.4203 7.55921 46.9065 12.5357 47.825 15.6844C47.9723 16.1889 47.6698 16.7131 47.1491 16.8558C46.6264 16.997 46.0864 16.7047 45.9399 16.2006C44.9399 12.7756 44.445 7.52656 44.2789 5.44032H43.2162C43.4693 8.13353 44.2146 15.5052 45.1887 20.1177C45.2969 20.6312 44.9552 21.1323 44.4254 21.2374C43.8949 21.3426 43.3777 21.0116 43.2695 20.498C42.2405 15.6271 41.4859 8.01434 41.2484 5.4407H39.6137ZM30.0407 54.0286H13.5835C13.0424 54.0286 12.6039 53.6038 12.6039 53.0796V45.963C12.6039 45.9622 12.6039 45.9615 12.6039 45.9607V4.49172C12.6039 3.9675 13.0424 3.54274 13.5835 3.54274H18.4117C18.4164 3.54274 18.4215 3.54274 18.4286 3.54274H21.4547C21.4618 3.54274 21.4685 3.54274 21.4755 3.54274H25.4405C25.4472 3.54274 25.4523 3.54274 25.4574 3.54274H30.0407C30.5818 3.54274 31.0203 3.9675 31.0203 4.49172V53.0796C31.0203 53.6038 30.5818 54.0286 30.0407 54.0286ZM14.5631 52.1306H29.0611V5.4407H26.3547C26.0432 9.0529 24.7215 22.7133 21.8807 31.7199C19.0485 40.6992 15.5501 45.1757 14.5631 46.3175V52.1306ZM14.5631 5.4407V43.0655C16.0184 40.8711 18.1653 37.0038 20.0073 31.1653C22.7153 22.5785 24.0507 9.21044 24.3869 5.44032H22.365C22.1275 8.01434 21.3728 15.6271 20.3435 20.498C20.2349 21.012 19.7146 21.3415 19.1876 21.2374C18.657 21.1323 18.3153 20.6309 18.4243 20.1173C19.3992 15.5037 20.1444 8.13315 20.3972 5.44032H19.3341C19.168 7.52656 18.6727 12.7756 17.6731 16.2006C17.5266 16.7047 16.985 16.9993 16.4643 16.8558C15.9435 16.7135 15.6407 16.1889 15.788 15.6844C16.7076 12.5334 17.1931 7.55807 17.3675 5.4407H14.5631Z" fill="#1C5630"/>
</svg>
