<svg width="80" height="80" viewBox="0 0 80 80" fill="none" xmlns="http://www.w3.org/2000/svg">
<path d="M17.0664 24.0001C17.3395 24.0001 17.6126 23.8956 17.8206 23.6876L22.0872 19.4209C22.5043 19.0039 22.5043 18.3297 22.0872 17.9127C21.6702 17.4956 20.996 17.4956 20.579 17.9127L16.3123 22.1793C15.8952 22.5964 15.8952 23.2705 16.3123 23.6876C16.5203 23.8956 16.7934 24.0001 17.0664 24.0001Z" fill="#1C5630"/>
<path d="M18.4456 25.3792L16.3123 27.5125C15.8952 27.9296 15.8952 28.6037 16.3123 29.0208C16.5203 29.2288 16.7934 29.3333 17.0664 29.3333C17.3395 29.3333 17.6126 29.2288 17.8206 29.0208L19.9539 26.8875C20.371 26.4704 20.371 25.7963 19.9539 25.3792C19.5368 24.9621 18.8627 24.9621 18.4456 25.3792Z" fill="#1C5630"/>
<path d="M20.5764 23.2425C20.3844 23.4441 20.2671 23.7225 20.2671 23.9999C20.2671 24.2772 20.3844 24.5545 20.5764 24.7572C20.7791 24.9492 21.0564 25.0665 21.3338 25.0665C21.6111 25.0665 21.8884 24.9492 22.0911 24.7572C22.2831 24.5545 22.4004 24.2772 22.4004 23.9999C22.4004 23.7225 22.2831 23.4441 22.0911 23.2425C21.6964 22.8479 20.9711 22.8479 20.5764 23.2425Z" fill="#1C5630"/>
<path d="M25.9127 17.9127L22.7127 21.1127C22.2956 21.5297 22.2956 22.2039 22.7127 22.6209C22.9207 22.8289 23.1938 22.9335 23.4668 22.9335C23.7399 22.9335 24.013 22.8289 24.221 22.6209L27.421 19.4209C27.838 19.0039 27.838 18.3297 27.421 17.9127C27.0039 17.4956 26.3298 17.4956 25.9127 17.9127Z" fill="#1C5630"/>
<path d="M46.1791 40.3126L41.9124 44.5792C41.4953 44.9963 41.4953 45.6704 41.9124 46.0875C42.1204 46.2955 42.3935 46.4 42.6665 46.4C42.9396 46.4 43.2127 46.2955 43.4207 46.0875L47.6873 41.8208C48.1044 41.4038 48.1044 40.7296 47.6873 40.3126C47.2703 39.8955 46.5961 39.8955 46.1791 40.3126Z" fill="#1C5630"/>
<path d="M44.7998 38.9334C45.0729 38.9334 45.346 38.8289 45.554 38.6209L47.6873 36.4876C48.1044 36.0705 48.1044 35.3964 47.6873 34.9793C47.2702 34.5622 46.5961 34.5622 46.179 34.9793L44.0457 37.1126C43.6286 37.5297 43.6286 38.2038 44.0457 38.6209C44.2537 38.8289 44.5268 38.9334 44.7998 38.9334Z" fill="#1C5630"/>
<path d="M42.6663 41.0665C42.9436 41.0665 43.2209 40.9492 43.4236 40.7572C43.6156 40.5545 43.7329 40.2772 43.7329 39.9999C43.7329 39.7225 43.6156 39.4441 43.4236 39.2425C43.0183 38.8479 42.3143 38.8479 41.9089 39.2425C41.7169 39.4441 41.5996 39.7225 41.5996 39.9999C41.5996 40.2772 41.7169 40.5545 41.9089 40.7572C42.1116 40.9492 42.3889 41.0665 42.6663 41.0665Z" fill="#1C5630"/>
<path d="M41.2877 41.3792C40.8706 40.9621 40.1965 40.9621 39.7794 41.3792L36.5794 44.5792C36.1623 44.9963 36.1623 45.6704 36.5794 46.0875C36.7874 46.2955 37.0605 46.4 37.3335 46.4C37.6066 46.4 37.8797 46.2955 38.0877 46.0875L41.2877 42.8875C41.7047 42.4704 41.7047 41.7963 41.2877 41.3792Z" fill="#1C5630"/>
<path d="M61.8667 12.2667H62.9333C63.5221 12.2667 64 11.7899 64 11.2C64 10.6101 63.5221 10.1333 62.9333 10.1333H61.8667V9.06667C61.8667 8.4768 61.3888 8 60.8 8C60.2112 8 59.7333 8.4768 59.7333 9.06667V10.1333H57.6V9.06667C57.6 8.4768 57.1221 8 56.5333 8C55.9445 8 55.4667 8.4768 55.4667 9.06667V10.1333H53.3333V9.06667C53.3333 8.4768 52.8555 8 52.2667 8C51.6779 8 51.2 8.4768 51.2 9.06667V10.1333H12.8V9.06667C12.8 8.4768 12.3221 8 11.7333 8C11.1445 8 10.6667 8.4768 10.6667 9.06667V10.1333H8.53333V9.06667C8.53333 8.4768 8.05547 8 7.46667 8C6.87787 8 6.4 8.4768 6.4 9.06667V10.1333H4.26667V9.06667C4.26667 8.4768 3.7888 8 3.2 8C2.6112 8 2.13333 8.4768 2.13333 9.06667V10.1333H1.06667C0.477867 10.1333 0 10.6101 0 11.2C0 11.7899 0.477867 12.2667 1.06667 12.2667H2.13333V13.3333H0V72H4.26667H6.4H8.53333H10.6667H14.9333V57.0667H49.0667V72H53.3333H55.4667H57.6H59.7333H64V13.3333H61.8667V12.2667ZM51.2 12.2667V13.3333H49.0667H33.0667V29.3333C32.4779 29.3333 32 29.8101 32 30.4C32 30.9899 32.4779 31.4667 33.0667 31.4667V49.6H49.0667V50.6667H14.9333V49.6H30.9333V13.3333H14.9333H12.8V12.2667H51.2ZM35.2 31.4667H37.3333C37.9221 31.4667 38.4 30.9899 38.4 30.4C38.4 29.8101 37.9221 29.3333 37.3333 29.3333H35.2V15.4667H49.0667V47.4667H35.2V31.4667ZM14.9333 47.4667V15.4667H28.8V47.4667H14.9333ZM4.26667 69.8667H2.13333V15.4667H4.26667V69.8667ZM4.26667 13.3333V12.2667H6.4V13.3333H4.26667ZM8.53333 69.8667H6.4V15.4667H8.53333V69.8667ZM8.53333 13.3333V12.2667H10.6667V13.3333H8.53333ZM12.8 69.8667H10.6667V15.4667H12.8V47.4667V50.6667V52.8V57.0667V69.8667ZM14.9333 54.9333V52.8H49.0667V54.9333H14.9333ZM53.3333 69.8667H51.2V57.0667V52.8V50.6667V47.4667V15.4667H53.3333V69.8667ZM53.3333 13.3333V12.2667H55.4667V13.3333H53.3333ZM57.6 69.8667H55.4667V15.4667H57.6V69.8667ZM61.8667 69.8667H59.7333V15.4667H61.8667V69.8667ZM57.6 13.3333V12.2667H59.7333V13.3333H57.6Z" fill="#1C5630"/>
</svg>
