<svg width="123" height="71" viewBox="0 0 123 71" fill="none" xmlns="http://www.w3.org/2000/svg">
<path fill-rule="evenodd" clip-rule="evenodd" d="M123 37.1774V70.9845H105.67V44.6347L96.8687 35.3666L88.0833 44.5901L88.0652 70.9865H70.7353V44.5901C70.7353 39.3828 66.75 35.3707 61.9624 35.3641V35.3248H52.9359V17.883H35.6474V35.3248H26.1108C21.2658 35.3248 17.2881 39.2199 17.2881 44.1534C17.2881 49.0873 21.2658 53.1379 26.1108 53.1379H35.6474V35.3248H52.9359V71L26.1108 70.9693C11.6786 70.9693 0 58.8507 0 44.1534C0 29.5084 11.6786 17.7647 26.1108 17.7647L35.4412 17.7643V0H53.149V17.7643L61.9516 17.7602C69.6055 17.7602 76.4341 21.1473 81.2177 26.504L96.8687 10.5685L123 37.1774Z" fill="#213AF9"/>
</svg>
