<svg width="83" height="85" viewBox="0 0 83 85" fill="none" xmlns="http://www.w3.org/2000/svg">
<g clip-path="url(#clip0)">
<path d="M81.787 1.01541V84.0006H1V1.01541H81.787Z" fill="#FFFFFE" stroke="#BFC0BF" stroke-width="2"/>
<path fill-rule="evenodd" clip-rule="evenodd" d="M23.2086 75.0152C21.7903 75.0152 20.4346 74.7528 19.1767 74.2354C17.9206 73.7189 16.7992 72.9816 15.8438 72.0429C14.8883 71.1033 14.1377 69.9863 13.6101 68.7224C13.0826 67.4567 12.8143 66.0957 12.8143 64.6766C12.8143 62.8436 13.28 61.1251 14.1976 59.5701C15.1124 58.018 16.3694 56.7716 17.9326 55.8625C19.4967 54.9552 21.2222 54.496 23.0574 54.496C25.1886 54.496 27.1078 55.0559 28.7659 56.1637C29.4558 56.597 30.1465 57.168 30.8087 57.8563C31.4893 58.564 31.9642 59.2763 32.2243 59.973L32.4447 60.5726H29.465L29.334 60.373C28.9015 59.7198 28.3473 59.1479 27.6833 58.6749C27.0119 58.1944 26.2713 57.8276 25.4847 57.5819C24.6934 57.337 23.8874 57.2105 23.0841 57.2105C21.7737 57.2105 20.5277 57.5597 19.3814 58.248C18.2305 58.94 17.3009 59.8759 16.6203 61.0299C15.9424 62.1765 15.5994 63.4034 15.5994 64.6766C15.5994 66.032 15.9507 67.3107 16.6424 68.4748C17.3368 69.6454 18.2858 70.5859 19.4561 71.2706C20.6264 71.9533 21.8889 72.3016 23.2086 72.3016C24.402 72.3016 25.5686 72.0005 26.6743 71.4055C27.7875 70.8105 28.7097 70.0076 29.4189 69.0171L29.5508 68.8314H32.6144L32.2768 69.4809C31.7041 70.5767 30.9387 71.5533 29.9999 72.382C29.0611 73.2108 27.994 73.864 26.8284 74.3232C25.659 74.7814 24.4426 75.0152 23.2086 75.0152Z" fill="#0C4729"/>
<path fill-rule="evenodd" clip-rule="evenodd" d="M34.967 74.6826H37.753V54.8036H34.967V74.6826Z" fill="#0C4729"/>
<path fill-rule="evenodd" clip-rule="evenodd" d="M47.1754 74.6826H44.3921V57.4109H40.0328V54.8036H51.484V57.4109H47.1754V74.6826Z" fill="#0C4729"/>
<path fill-rule="evenodd" clip-rule="evenodd" d="M63.0468 74.6826H60.2626V67.998L53.3801 54.8036H56.4621L56.5857 55.0439L61.6533 64.9399L66.7237 55.0439L66.8473 54.8036H69.9284L69.5909 55.4541L63.0468 67.998V74.6826Z" fill="#0C4729"/>
<path fill-rule="evenodd" clip-rule="evenodd" d="M23.4522 52.2269H12.8152V32.348H15.6004V49.6187H23.4522V52.2269Z" fill="#00A0D3"/>
<path fill-rule="evenodd" clip-rule="evenodd" d="M57.8095 52.2269H54.3281L54.1953 52.0532L48.2055 44.2739L46.1914 46.7509V52.2269H43.4062V32.348H46.1914V42.4501L54.1511 32.5125L54.282 32.348H57.8381L49.9817 42.0519L57.2599 51.5118L57.8095 52.2269Z" fill="#00A0D3"/>
<path fill-rule="evenodd" clip-rule="evenodd" d="M69.9293 52.2269H58.6773V32.348H69.9293V34.9553H61.4633V40.9044H69.6499V43.5126H61.4633V49.6187H69.9293V52.2269Z" fill="#00A0D3"/>
<path fill-rule="evenodd" clip-rule="evenodd" d="M40.5399 44.3413L40.515 44.2803L35.4069 32.347H32.7177L32.6033 32.615L24.4177 51.606L24.1502 52.2269H27.1714L28.41 49.348L28.4616 49.2269L28.4385 49.0967C28.4072 48.9063 28.2458 47.9242 28.2938 47.2904L28.2974 47.2156C28.3057 47.1038 28.3168 46.9661 28.3362 46.8155C28.3897 46.3222 28.5132 45.9212 28.7207 45.6033C29.0408 45.1091 29.4447 44.7783 29.9528 44.5861C30.1317 44.5177 30.3245 44.4725 30.5237 44.442L30.7755 43.8627L34.0595 36.1175L37.1886 43.6132C37.4265 43.6899 37.6506 43.7694 37.8673 43.8461C38.108 43.932 38.3441 44.0161 38.5867 44.0909C38.6392 44.1075 38.6881 44.1186 38.7379 44.1325L38.8301 44.1556C39.3198 44.2886 39.7634 44.3468 40.2734 44.3468C40.3601 44.3468 40.4496 44.3441 40.5399 44.3413ZM43.6515 51.6069L41.7997 47.2839C41.3377 47.7043 40.7963 48.0563 40.1812 48.3233C39.9128 48.4388 39.6334 48.5368 39.3438 48.619L40.7816 51.9589L40.8987 52.2269H43.9162L43.6515 51.6069Z" fill="#00A0D3"/>
<path fill-rule="evenodd" clip-rule="evenodd" d="M39.1834 46.0099C39.2378 46.0025 39.2959 45.997 39.3503 45.9887C40.0217 45.8704 40.5612 45.5932 40.9338 45.268C41.0702 45.1497 41.1874 45.025 41.274 44.8984C41.1505 44.9446 40.9974 44.9751 40.8148 44.9908C40.7594 44.9945 40.7087 45.001 40.6488 45.0056C39.9064 45.037 39.3143 44.977 38.6614 44.8005C38.571 44.7774 38.4825 44.7562 38.3875 44.7275C37.2264 44.3635 36.2258 43.8387 34.1748 43.7334C33.034 43.6743 32.2021 44.0318 31.5501 44.5215C32.2741 44.6222 33.1898 44.8707 34.386 45.3179C36.0294 45.9341 37.8037 46.2076 39.1834 46.0099ZM42.0524 44.1177C41.9104 43.8775 41.8034 43.7833 41.7905 43.7731C41.8394 43.9708 42.0026 44.8892 41.0961 45.6487C40.777 45.9157 40.3306 46.1624 39.6943 46.349C39.5947 46.3786 39.4831 46.4053 39.366 46.4321C38.4271 46.6409 36.9138 46.7232 35.0767 46.2039L32.583 45.3539C31.4552 44.9945 30.7082 45.0112 30.1871 45.208C29.7518 45.3724 29.4779 45.6625 29.2787 45.9683C29.0306 46.349 28.9817 46.8719 28.9734 47.248C29.1302 47.077 29.2879 46.9541 29.4687 46.8765C30.1189 46.5957 31.0955 46.8978 33.6666 47.684C36.4305 48.5285 38.4788 48.3345 39.9165 47.7118C40.5787 47.4263 41.1108 47.0493 41.5212 46.6409C41.5443 46.616 41.5728 46.592 41.5959 46.567C42.2129 45.924 42.46 44.8162 42.0524 44.1177Z" fill="#00A0D3"/>
<path fill-rule="evenodd" clip-rule="evenodd" d="M15.6427 19.61H18.462C19.2698 19.61 19.967 19.5638 20.5388 19.4723C21.0746 19.3855 21.5828 19.1942 22.0476 18.906C22.5077 18.6195 22.8563 18.2361 23.1136 17.7344C23.3728 17.2291 23.5037 16.6849 23.5037 16.1194C23.5037 15.3877 23.3248 14.765 22.955 14.2143C22.588 13.6618 22.0854 13.2618 21.4177 12.9864C20.7786 12.7167 19.9384 12.5808 18.9185 12.5808C18.7792 12.5808 18.5671 12.5864 18.2867 12.5929C17.9916 12.603 17.7767 12.6067 17.6412 12.6067H15.6427V19.61ZM15.6427 29.8774H12.8567V9.9985H18.2794C19.0365 10.0077 19.671 10.0327 20.2206 10.0724C20.7924 10.114 21.3716 10.2119 21.9424 10.3653C22.5225 10.5214 23.0795 10.769 23.596 11.098C24.4629 11.6431 25.1388 12.3711 25.599 13.2599C26.0565 14.1423 26.2879 15.1133 26.2879 16.1462C26.2879 18.1696 25.5022 19.7698 23.951 20.9035C23.2363 21.4329 22.446 21.7886 21.604 21.965C20.7943 22.1332 19.8416 22.2173 18.7691 22.2173H15.6427V29.8774Z" fill="#83BE43"/>
<path fill-rule="evenodd" clip-rule="evenodd" d="M54.804 29.8784H51.3373L51.2036 29.701L44.7665 21.0938L44.2344 20.3824H45.686C46.5916 20.3824 47.3672 20.3519 47.9952 20.2937C48.5919 20.2383 49.1471 20.1043 49.6441 19.901C50.322 19.5869 50.8679 19.1185 51.2516 18.5179C51.6361 17.9155 51.8307 17.2235 51.8307 16.4595C51.8307 15.8746 51.6869 15.299 51.4037 14.7502C51.1225 14.2042 50.737 13.7616 50.2574 13.4309C49.7539 13.0678 49.2088 12.8414 48.6297 12.7518C48.0044 12.6548 47.1938 12.6067 46.2245 12.6067H43.6626V29.8784H40.8784V9.99945H45.8354C47.0444 9.99945 48.092 10.054 48.9516 10.1667C49.847 10.2831 50.6844 10.5575 51.4406 10.9862C52.4624 11.5738 53.2537 12.3721 53.7978 13.3579C54.341 14.3418 54.614 15.445 54.614 16.6359C54.614 17.7252 54.3429 18.7498 53.808 19.6774C53.2712 20.6032 52.5353 21.3543 51.6177 21.9087C50.9325 22.3235 50.1938 22.5933 49.4127 22.7153L54.2682 29.167L54.804 29.8784Z" fill="#83BE43"/>
<path fill-rule="evenodd" clip-rule="evenodd" d="M69.9441 29.8784H66.4636L66.3308 29.7065L60.3401 21.9244L58.325 24.4033V29.8784H55.5408V9.99945H58.325V20.1034L66.2856 10.1639L66.4184 9.99945H69.9718L62.1181 19.7052L69.3935 29.1642L69.9441 29.8784Z" fill="#83BE43"/>
<path fill-rule="evenodd" clip-rule="evenodd" d="M41.4871 29.2584L39.638 24.94C39.6177 24.9604 39.5984 24.9798 39.5772 24.9973C39.5412 25.0278 39.5061 25.0564 39.4711 25.0851C39.4425 25.1073 39.4139 25.1313 39.3853 25.1553C39.2682 25.2495 39.1456 25.3392 39.0192 25.426C38.9842 25.45 38.9473 25.4713 38.9122 25.4944C38.8145 25.5563 38.7149 25.6182 38.6116 25.6755C38.5618 25.7041 38.512 25.7327 38.4622 25.7586C38.4456 25.7678 38.4308 25.7771 38.4133 25.7854C38.4022 25.791 38.3921 25.7937 38.381 25.7974C38.2611 25.8593 38.1422 25.9212 38.0168 25.9748C37.9817 25.9914 37.9439 26.0034 37.9079 26.0182C37.9052 26.0192 37.9052 26.0201 37.9033 26.021L37.8674 26.0367C37.8231 26.0552 37.7751 26.0755 37.7281 26.0931C37.717 26.0977 37.7041 26.1005 37.6912 26.1032C37.5261 26.1661 37.3528 26.2169 37.1785 26.2658L38.619 29.6095L38.7342 29.8783H41.7517L41.4871 29.2584ZM37.3205 21.9429C37.5704 21.978 37.8231 21.9946 38.0933 21.9946C38.1698 21.9946 38.2482 21.9937 38.3275 21.9909L38.3755 21.99L38.3506 21.9327L33.3577 10.2674L33.2433 9.9985H30.5541L30.4389 10.2664L22.2541 29.2575L21.9876 29.8783H25.006L25.1222 29.6095L26.2464 27.0004L26.2981 26.8793L26.2769 26.7481C26.2427 26.5587 26.0823 25.5757 26.1293 24.9419L26.1348 24.867C26.1404 24.7783 26.1496 24.6702 26.1634 24.5557C26.1939 24.1806 26.2676 23.8581 26.3848 23.5837C26.3848 23.5819 26.3857 23.5809 26.3857 23.5791C26.4346 23.4627 26.4927 23.3555 26.5572 23.2548C26.5609 23.2493 26.5664 23.2446 26.5692 23.2391C26.6356 23.1393 26.7066 23.0479 26.7776 22.9629C26.7988 22.937 26.8201 22.9111 26.8413 22.8862C26.9169 22.803 26.9962 22.7254 27.0783 22.6552C27.1004 22.6376 27.1225 22.621 27.1438 22.6034C27.1751 22.5804 27.2037 22.5545 27.2351 22.5314C27.2655 22.5092 27.3015 22.4935 27.3328 22.4732C27.3854 22.439 27.4379 22.4057 27.4933 22.3762C27.5569 22.342 27.6224 22.3124 27.6897 22.2847C27.7238 22.269 27.7543 22.2505 27.7893 22.2385C27.8179 22.2265 27.8474 22.2182 27.876 22.2099C27.9027 22.2006 27.9295 22.1905 27.9562 22.1831C28.0577 22.1517 28.1628 22.1276 28.2707 22.1082C28.2993 22.1027 28.3297 22.099 28.3592 22.0953L28.6119 21.5142L31.895 13.7699L35.0232 21.2647C35.1265 21.298 35.228 21.3312 35.3257 21.3663C35.3359 21.3691 35.3497 21.3728 35.3607 21.3765C35.4714 21.4144 35.5793 21.4541 35.6872 21.492C35.6927 21.4938 35.6983 21.4957 35.7038 21.4975C35.9454 21.5834 36.1788 21.6675 36.4232 21.7433C36.4656 21.7553 36.5052 21.7645 36.544 21.7765C36.5486 21.7775 36.5541 21.7775 36.5578 21.7784C36.6445 21.8015 36.7266 21.8218 36.8105 21.8431C36.8649 21.8551 36.9212 21.8699 36.9765 21.8809C37.0816 21.904 37.1868 21.9225 37.2928 21.9382C37.302 21.9392 37.3122 21.9419 37.3205 21.9429Z" fill="#83BE43"/>
<path fill-rule="evenodd" clip-rule="evenodd" d="M30.4859 23.0276L31.2098 25.2182C31.2126 25.2274 31.2108 25.2376 31.2126 25.2477C31.3094 25.2764 31.4007 25.305 31.5031 25.3355C32.0546 25.5046 32.5757 25.6284 33.0727 25.7189L31.9596 23.5292L30.4859 23.0276Z" fill="#83BE43"/>
<path fill-rule="evenodd" clip-rule="evenodd" d="M34.0429 24.103C33.6814 24.0429 33.307 23.9663 32.9132 23.8554L32.5849 23.7436L33.6335 25.8113C34.3593 25.9074 35.0186 25.9203 35.6199 25.8714L34.0577 24.1279C34.0503 24.1205 34.0485 24.1113 34.0429 24.103Z" fill="#83BE43"/>
<path fill-rule="evenodd" clip-rule="evenodd" d="M39.888 21.7683C39.7478 21.5272 39.638 21.4348 39.6251 21.4237C39.6805 21.6371 39.8695 22.6913 38.7001 23.4766C38.4041 23.6743 38.0251 23.8554 37.5317 23.9995C37.3583 24.0504 37.1462 24.0966 36.9156 24.1354L36.9544 24.225L38.1081 25.1942C38.5028 24.9891 38.8459 24.7535 39.1373 24.4975C39.2415 24.4061 39.3402 24.3137 39.4333 24.2176C40.0494 23.5736 40.2956 22.4677 39.888 21.7683Z" fill="#83BE43"/>
<path fill-rule="evenodd" clip-rule="evenodd" d="M37.3602 25.1683L36.2341 24.2222C35.7942 24.2536 35.2898 24.249 34.7365 24.1964L36.1438 25.7661C36.1548 25.7799 36.1594 25.7947 36.1687 25.8095C36.6528 25.7347 37.0918 25.621 37.4902 25.4704C37.5428 25.4501 37.5944 25.4279 37.6451 25.4076L37.3602 25.1683Z" fill="#83BE43"/>
<path fill-rule="evenodd" clip-rule="evenodd" d="M29.9676 22.9278C29.9603 22.9111 29.9621 22.8936 29.9603 22.8751C28.7872 22.5822 28.0808 22.7439 27.6224 23.0728C27.4075 23.228 27.2443 23.4202 27.1143 23.6189C26.8662 23.9995 26.8182 24.5224 26.809 24.8985C26.8256 24.88 26.8422 24.8671 26.857 24.8514C27.4988 24.1917 28.1601 24.3192 30.6796 25.0842L29.9676 22.9278Z" fill="#83BE43"/>
<path fill-rule="evenodd" clip-rule="evenodd" d="M33.4859 21.5539C33.0552 21.4736 32.5756 21.4126 32.0122 21.3839C30.8705 21.3248 30.0386 21.6824 29.3866 22.173C29.9879 22.2561 30.722 22.4427 31.6387 22.7596L33.4859 21.5539Z" fill="#83BE43"/>
<path fill-rule="evenodd" clip-rule="evenodd" d="M32.2224 22.9703C32.7868 23.181 33.3678 23.3491 33.9405 23.4738L35.8052 22.2404C35.2805 22.0575 34.7576 21.8579 34.1167 21.6935L32.1809 22.9555C32.1957 22.9601 32.2086 22.9657 32.2224 22.9703Z" fill="#83BE43"/>
<path fill-rule="evenodd" clip-rule="evenodd" d="M38.4843 22.6543C38.4373 22.658 38.3949 22.6553 38.3488 22.6571C37.6267 22.6793 37.0346 22.61 36.3734 22.4178L36.2184 22.5194L34.5916 23.5977C35.346 23.7187 36.0727 23.7584 36.7275 23.6974C36.8833 23.6827 37.0392 23.666 37.1858 23.6392C37.7281 23.5441 38.1846 23.3427 38.5387 23.0987C38.784 22.9297 38.9777 22.7421 39.1114 22.549C38.95 22.6091 38.7481 22.6433 38.4843 22.6543Z" fill="#83BE43"/>
</g>
<defs>
<clipPath id="clip0">
<rect width="83" height="85" fill="white"/>
</clipPath>
</defs>
</svg>
